<?xml version="1.0" encoding="UTF-8"?>
<svg id="Calque_2" data-name="Calque 2" xmlns="http://www.w3.org/2000/svg" viewBox="0 0 84.24 84.23">
  <g id="Calque_1-2" data-name="Calque 1">
    <g>
      <g>
        <path d="m65.62,55.47c-4.25,5.83-13.05,11.2-23.62,10-11.59-1.31-20.76-9.85-22.92-21.46-2.03-10.94,3.21-20.42,9.84-25.42-2,2.61-3.6,5.73-4.52,9.19-.92,3.48-1.16,7.31-.42,11.33,2.16,11.6,11.33,20.15,22.92,21.46,4.62.52,8.91-.21,12.62-1.68,2.26-.9,4.31-2.08,6.09-3.42Z"/>
        <path d="m56.97,47.12c2.72-3.42,3.95-8.03,3.05-12.51-1.43-7.07-7.56-12.14-14.71-12.22-3.28-.04-6.2.98-8.53,2.51,2.47-3.12,6.81-5.8,12.1-5.74,7.16.08,13.29,5.15,14.71,12.22,1.24,6.12-1.51,12.49-6.62,15.74Z"/>
      </g>
      <g>
        <path d="m16.32,13.8s-.06.04-.09.04-.06,0-.08-.04l-2.33-2.72s-.04-.07-.03-.1c0-.03.03-.06.05-.08.02-.02.05-.03.09-.03.03,0,.07,0,.11.02.04.01.07.02.1.04l1.94.8-.48-2.05s-.01-.07-.02-.11,0-.08,0-.11c0-.04.02-.06.04-.08.03-.02.06-.04.09-.04.03,0,.06.01.09.05l2.33,2.72s.03.06.02.09-.02.06-.05.08c-.02.02-.05.03-.09.04s-.06,0-.08-.03l-2.03-2.36.45,1.95s.01.07,0,.1c0,.03-.02.05-.03.06-.01.01-.03.02-.06.02s-.06,0-.1-.02l-1.86-.75,2.03,2.37s.03.06.02.09-.03.06-.05.08Z"/>
        <path d="m19.65,11.15c-.16.12-.33.19-.5.23-.17.03-.34.01-.51-.06-.17-.07-.33-.22-.48-.43l-.98-1.35c-.16-.21-.24-.41-.26-.59-.02-.18.01-.35.1-.5.09-.15.21-.29.36-.4.16-.12.33-.19.5-.23.17-.04.34-.02.51.06s.33.22.48.43l.98,1.35c.16.21.24.41.26.59.02.18-.02.35-.1.5s-.21.29-.37.4Zm-.15-.2c.2-.15.32-.31.35-.51.03-.19-.03-.41-.2-.64l-.98-1.35c-.17-.23-.35-.36-.54-.39-.19-.03-.39.03-.59.18-.2.15-.32.31-.35.51s.04.41.2.64l.98,1.35c.17.23.35.36.54.39.19.03.39-.03.59-.17Z"/>
        <path d="m21.96,9.59c-.17.1-.34.17-.51.19-.17.02-.34-.01-.5-.1-.16-.09-.31-.24-.45-.47l-.88-1.41c-.14-.22-.21-.43-.22-.61,0-.18.04-.35.14-.49.1-.15.23-.27.39-.37.17-.1.34-.17.51-.19s.34,0,.5.1c.16.09.31.24.45.47l.88,1.42c.14.22.21.43.22.61,0,.18-.04.35-.14.49-.1.15-.23.27-.39.37Zm-.14-.21c.21-.13.34-.29.39-.48s0-.41-.16-.65l-.88-1.41c-.15-.24-.32-.39-.51-.43-.19-.04-.39,0-.6.13s-.34.29-.38.48c-.05.19,0,.41.16.65l.88,1.42c.15.24.32.39.51.43.19.04.39,0,.6-.13Z"/>
        <path d="m23.6,8.58s-.06.02-.09.02c-.03,0-.06-.02-.07-.05l-1.67-3.19s-.02-.07,0-.09c.02-.03.04-.05.07-.06.03-.01.06-.02.09,0,.03,0,.07.02.1.04.03.02.06.04.09.06l2.72,1.94-1.43-2.74s-.02-.06,0-.09.04-.05.07-.07c.03-.01.06-.02.09-.02.03,0,.06.02.07.05l1.67,3.19s.02.06,0,.09c-.02.03-.04.05-.07.07-.04.02-.08.02-.13,0-.05-.02-.09-.05-.13-.08l-2.75-1.96,1.43,2.74s.02.06,0,.09c-.02.03-.04.05-.07.07Z"/>
        <path d="m27.1,6.88s-.06.01-.09,0c-.03,0-.05-.03-.06-.06l-1.36-3.34s-.01-.06,0-.09c.02-.03.04-.05.07-.06.03-.01.06-.01.09,0,.03,0,.06.02.07.06l1.3,3.21,1.43-.58s.06,0,.08,0c.02.02.04.04.05.07.01.03.02.06.01.09,0,.03-.02.05-.05.06l-1.56.63Z"/>
        <path d="m29,6.11s-.04,0-.07,0-.05,0-.06-.02c-.02-.01-.03-.03-.04-.05,0,0,0-.02,0-.03l-.08-3.77s0-.07.03-.09.05-.04.08-.05c.03,0,.06-.01.09,0,.03,0,.06.02.08.05l2.18,3.08s.01.02.01.03c0,.02,0,.04,0,.06,0,.02-.02.04-.04.06-.02.02-.04.03-.06.04-.02,0-.05,0-.07,0-.02,0-.04-.02-.06-.04l-.5-.71-1.43.47.02.87s0,.05-.02.07c-.02.02-.04.03-.06.04Zm.05-1.23l1.29-.43-1.34-1.9.05,2.33Z"/>
        <path d="m32.72,5.02c-.19.05-.37.06-.54.02-.17-.03-.32-.11-.45-.24-.13-.13-.23-.32-.29-.58l-.41-1.61c-.07-.26-.07-.47-.02-.65.05-.18.14-.32.28-.43.14-.11.3-.19.49-.24.21-.05.4-.06.57-.03s.31.11.43.22c.12.11.19.24.23.41.01.05,0,.08,0,.11-.02.03-.05.04-.08.05-.03,0-.06,0-.09,0-.03-.01-.05-.03-.06-.07-.05-.14-.12-.25-.21-.32-.09-.08-.19-.13-.31-.15-.12-.02-.26-.01-.41.03-.24.06-.41.17-.51.34-.1.17-.12.39-.05.67l.41,1.61c.07.28.19.46.36.56.17.1.37.12.61.06.24-.06.41-.17.51-.34s.12-.39.05-.67l-.17-.68-.74.19s-.06,0-.09-.02c-.02-.02-.04-.04-.05-.07,0-.03,0-.06,0-.09.01-.03.04-.05.07-.06l.9-.23s.06,0,.08.01c.02.02.04.04.05.07l.2.8c.07.26.07.47.02.65-.05.18-.14.32-.28.43-.14.11-.3.19-.49.24Z"/>
        <path d="m36.33,4.25s-.07,0-.11-.05c-.03-.04-.06-.07-.09-.1l-1.09-1.43-.71.13.29,1.64s0,.06-.03.09c-.02.02-.05.04-.08.04-.03,0-.07,0-.1-.01-.03-.01-.05-.04-.05-.07l-.64-3.55s0-.05.02-.07c.02-.02.04-.04.07-.05l.88-.16c.19-.03.38-.04.55,0,.18.03.33.11.45.24.13.13.21.32.26.57.04.22.03.4-.02.55-.05.15-.13.27-.24.36-.11.09-.25.17-.4.22l1.11,1.45s.01.02.02.03c0,0,0,.02,0,.03,0,.02,0,.05,0,.07-.01.02-.02.04-.04.06-.02.02-.04.03-.06.03Zm-2.04-1.69l.73-.13c.24-.04.43-.14.56-.28.13-.15.17-.36.12-.63-.05-.27-.16-.45-.33-.54-.17-.09-.38-.11-.62-.07l-.73.13.27,1.52Z"/>
        <path d="m37.11,4.14s-.06,0-.09-.02-.04-.04-.05-.08l-.39-3.58s0-.06.03-.08c.02-.02.05-.03.08-.04l1.85-.2s.07,0,.09.03c.02.02.03.05.03.08,0,.03,0,.06-.02.09-.02.03-.04.05-.08.05l-1.71.19.17,1.53.82-.09s.06,0,.08.03.03.05.04.09c0,.03,0,.05-.02.08-.01.03-.04.04-.08.05l-.82.09.17,1.53,1.71-.19s.06,0,.08.03c.02.02.03.05.04.09,0,.03,0,.06-.02.08-.01.03-.04.04-.08.05l-1.85.2Z"/>
        <path d="m39.67,3.89s-.06,0-.08-.03c-.03-.02-.04-.04-.04-.08l-.16-3.59s0-.06.03-.08c.02-.02.05-.03.08-.03L41.36,0s.07,0,.09.04c.02.03.03.05.03.08,0,.03,0,.06-.02.09s-.04.04-.08.05l-1.72.07.07,1.53.82-.04s.06,0,.08.03c.02.02.03.05.03.09,0,.03,0,.05-.02.08s-.04.04-.08.04l-.82.04.07,1.54,1.72-.07s.06.01.08.04c.02.03.03.06.03.09,0,.03,0,.06-.02.08-.02.03-.04.04-.08.04l-1.86.08Z"/>
        <path d="m43.97,3.9c-.22-.01-.41-.05-.56-.13s-.27-.16-.34-.25c-.08-.09-.11-.16-.11-.22,0-.02,0-.04.02-.07.01-.02.03-.04.05-.06.02-.01.04-.02.05-.02.03,0,.06.02.09.07s.07.1.13.16.14.12.24.17.24.08.41.09c.18,0,.33-.01.46-.07.13-.05.22-.14.29-.25.07-.11.11-.26.12-.43,0-.18-.02-.33-.08-.44-.06-.11-.14-.21-.24-.28s-.21-.13-.33-.18c-.12-.05-.24-.1-.36-.15-.12-.05-.23-.11-.33-.19s-.18-.17-.24-.29c-.06-.12-.08-.27-.07-.45,0-.19.05-.34.12-.46.07-.12.17-.21.28-.27.11-.06.23-.1.35-.12.12-.02.24-.03.36-.02.1,0,.21.02.3.04.1.02.19.05.27.08.08.03.15.06.19.1.05.04.07.07.07.11,0,.02,0,.04-.02.06-.01.02-.03.04-.04.06s-.04.02-.06.02c-.03,0-.07-.02-.12-.06-.05-.04-.13-.07-.22-.11-.1-.04-.22-.06-.38-.07-.12,0-.25,0-.38.04s-.23.09-.31.18c-.08.09-.13.22-.14.4,0,.15.02.27.08.36.06.09.14.17.24.23.1.06.21.11.33.16.12.05.24.1.36.16.12.06.23.13.33.21.1.09.18.2.24.33.06.14.08.31.07.52-.01.25-.07.45-.17.6-.1.15-.23.26-.39.33-.16.07-.35.09-.56.08Z"/>
        <path d="m46.39,4.06s-.06-.02-.09-.04-.03-.05-.03-.08l.38-3.44-.9-.1s-.06-.02-.08-.05-.03-.06-.02-.09c0-.03.02-.06.04-.08s.05-.03.09-.03l2.05.23s.07.02.08.05.02.06.02.09c0,.03-.02.06-.04.09-.02.02-.05.03-.09.03l-.89-.1-.38,3.44s-.02.06-.05.08c-.03.02-.06.02-.09.02Z"/>
        <path d="m48.96,4.46c-.2-.04-.37-.1-.51-.2s-.25-.24-.31-.41c-.06-.17-.07-.39-.02-.65l.47-2.61s.02-.06.05-.07c.03-.01.06-.01.09,0,.03,0,.06.02.08.04.02.02.03.05.03.09l-.47,2.61c-.05.28-.02.5.09.66.11.16.29.26.54.31.24.04.45.01.61-.1.16-.11.27-.31.32-.59l.47-2.61s.02-.06.05-.07c.03-.01.06-.01.09,0,.03,0,.06.02.08.04.02.02.03.05.03.09l-.47,2.61c-.05.26-.13.46-.25.6-.12.14-.27.23-.44.27-.17.04-.35.05-.54.01Z"/>
        <path d="m50.86,4.81s-.06-.03-.08-.05c-.02-.03-.02-.05-.01-.08l.9-3.49s.02-.05.05-.06.06-.02.09,0l.89.23c.19.05.36.13.49.24.14.11.23.25.28.43s.04.39-.02.65l-.41,1.58c-.07.26-.16.45-.29.58-.13.13-.28.21-.45.24-.17.03-.36.02-.55-.03l-.89-.23Zm.2-.21l.76.2c.24.06.44.04.61-.05.17-.1.29-.29.36-.56l.41-1.58c.07-.28.06-.5-.04-.67-.1-.17-.27-.28-.51-.34l-.76-.2-.83,3.21Z"/>
        <path d="m53.61,5.58s-.06-.03-.08-.05-.02-.06-.01-.09l1.08-3.44s.03-.06.06-.07c.03,0,.06,0,.09,0,.03,0,.06.03.08.05.02.02.03.05.02.09l-1.08,3.44s-.03.06-.06.06c-.03,0-.06.01-.09,0Z"/>
        <path d="m55.43,6.23c-.19-.07-.34-.17-.46-.29-.12-.12-.2-.28-.23-.46-.03-.18,0-.39.09-.64l.58-1.56c.09-.25.21-.43.35-.55s.3-.18.47-.19c.17-.01.35.01.54.08.19.07.34.17.47.29.12.12.2.28.23.46s0,.39-.09.64l-.58,1.56c-.09.25-.21.43-.35.55s-.3.18-.48.19-.35-.01-.54-.08Zm.08-.24c.23.09.44.09.62,0,.18-.08.32-.25.42-.52l.58-1.56c.1-.27.11-.49.02-.67-.08-.18-.24-.31-.47-.4-.23-.09-.44-.09-.62,0-.18.08-.32.25-.42.52l-.58,1.56c-.1.27-.11.49-.02.67.08.18.24.31.47.39Z"/>
        <path d="m58.47,6.22s-.04-.03-.05-.06c0-.03,0-.06,0-.09.02-.03.04-.05.07-.06.03-.01.06-.01.08,0l1.23.58s.05.04.06.07c.01.03,0,.06,0,.09-.01.03-.04.05-.07.06-.03.01-.06,0-.09,0l-1.23-.58Z"/>
        <path d="m60.87,8.69s-.05-.04-.06-.07c-.01-.03,0-.06,0-.09l1.85-3.07s.05-.06.08-.06c.03,0,.06,0,.09.02.03.02.05.04.06.07.01.03.02.07.02.11,0,.04,0,.08,0,.11l-.15,2.09,1.79-1.1s.06-.04.1-.05c.03-.02.07-.03.11-.03.04,0,.07,0,.09.01.03.02.06.04.07.07.01.03,0,.06-.02.1l-1.85,3.07s-.04.05-.08.05c-.03,0-.06,0-.09-.02-.03-.02-.05-.04-.06-.07s-.01-.06,0-.09l1.61-2.67-1.71,1.04s-.07.04-.09.04-.05,0-.07-.01c-.02,0-.03-.03-.04-.05s-.01-.06,0-.1l.13-2.01-1.61,2.67s-.04.05-.08.05c-.03,0-.06,0-.09-.02Z"/>
        <path d="m64.43,11.02c-.16-.12-.28-.25-.37-.4-.09-.15-.12-.32-.1-.5s.1-.38.26-.6l.97-1.35c.15-.21.32-.36.48-.43s.34-.1.51-.06.34.11.49.22c.16.12.29.25.37.4s.12.32.1.5c-.02.18-.1.38-.26.6l-.97,1.35c-.15.21-.32.36-.48.43-.17.07-.34.1-.51.06-.17-.03-.34-.11-.5-.22Zm.14-.21c.2.14.4.2.59.17.19-.03.38-.16.54-.39l.97-1.35c.17-.23.23-.44.2-.64-.03-.19-.15-.36-.35-.51-.2-.14-.4-.2-.59-.17-.19.03-.37.16-.54.39l-.97,1.35c-.17.23-.23.44-.2.64s.15.36.35.51Z"/>
        <path d="m66.64,12.74c-.15-.13-.27-.27-.34-.43s-.1-.33-.07-.51c.03-.18.13-.37.3-.58l1.07-1.28c.17-.2.34-.34.51-.4.17-.06.34-.07.51-.03.17.05.33.13.48.26.15.13.27.27.34.43s.1.33.07.51c-.03.18-.13.37-.3.58l-1.07,1.28c-.17.2-.34.34-.51.4-.17.06-.34.07-.51.02s-.33-.13-.48-.26Zm.16-.2c.19.16.38.23.58.22s.39-.13.57-.35l1.07-1.28c.18-.22.26-.43.24-.62-.02-.2-.12-.37-.31-.53s-.38-.23-.58-.21c-.2.02-.38.13-.57.35l-1.07,1.28c-.18.22-.27.43-.25.62s.12.37.31.53Z"/>
        <path d="m68.11,13.98s-.04-.05-.05-.08c0-.03,0-.06.03-.09l2.5-2.58s.06-.04.09-.03c.03,0,.06.02.08.05.02.02.04.05.04.08s0,.07,0,.11c0,.04-.02.07-.03.11l-.99,3.19,2.15-2.22s.05-.03.08-.03c.03,0,.06.02.08.05.02.02.04.05.05.08,0,.03,0,.06-.02.09l-2.51,2.59s-.05.03-.09.03c-.03,0-.06-.02-.08-.04-.03-.03-.04-.07-.03-.12,0-.05.02-.1.03-.15l.99-3.23-2.15,2.22s-.05.03-.09.03-.06-.02-.08-.04Z"/>
        <path d="m70.83,16.76s-.03-.05-.03-.08c0-.03.01-.06.04-.08l2.74-2.34s.05-.03.09-.02.06.03.08.05c.02.02.03.05.04.08,0,.03,0,.06-.03.08l-2.63,2.25,1,1.17s.03.05.02.08c0,.03-.03.05-.05.07-.02.02-.05.03-.08.04s-.06,0-.08-.03l-1.09-1.28Z"/>
        <path d="m72.15,18.32s-.02-.04-.03-.06c0-.02,0-.05,0-.07,0-.02.02-.04.04-.05,0,0,.02-.01.03-.01l3.56-1.27s.07-.01.09,0,.05.03.07.06c.02.02.03.05.04.09,0,.03,0,.06-.02.09l-2.23,3.04s-.01.02-.02.02c-.01.01-.03.02-.06.01-.02,0-.05,0-.07-.02-.02-.01-.04-.03-.05-.05s-.02-.04-.02-.06c0-.02,0-.05.02-.07l.51-.7-.9-1.2-.82.3s-.05.01-.07,0c-.02,0-.04-.03-.06-.05Zm1.18-.34l.81,1.09,1.38-1.87-2.2.79Z"/>
        <path d="m74.36,21.49c-.11-.16-.17-.33-.19-.5-.02-.17,0-.34.09-.5.08-.16.24-.32.46-.46l1.4-.9c.22-.14.43-.22.61-.23.18,0,.35.03.5.13.15.09.27.22.38.39.12.18.19.36.21.54.02.17,0,.33-.07.48-.07.14-.17.26-.31.35-.04.03-.08.03-.11.03-.03,0-.06-.03-.08-.06-.02-.03-.03-.06-.03-.09,0-.03.02-.06.05-.08.11-.09.19-.19.24-.3s.06-.22.04-.34c-.02-.12-.07-.25-.15-.38-.13-.21-.3-.33-.49-.38-.19-.04-.41.01-.65.17l-1.4.9c-.24.15-.38.33-.42.52-.04.19,0,.39.14.6.13.21.3.33.49.38.19.04.41-.01.65-.16l.59-.38-.41-.65s-.02-.06-.01-.09c0-.03.03-.05.05-.07s.05-.02.09-.02.06.02.07.05l.5.78s.02.05.01.08c0,.03-.03.05-.05.07l-.7.45c-.22.14-.43.22-.61.23-.18,0-.35-.04-.5-.13s-.28-.23-.38-.39Z"/>
        <path d="m76.24,24.67s-.01-.07.01-.12c.03-.04.05-.08.07-.12l1.01-1.49-.35-.63-1.47.8s-.06.02-.09,0c-.03-.02-.05-.04-.07-.06-.02-.03-.02-.06-.02-.09s.02-.06.05-.07l3.16-1.73s.05-.02.08,0c.03,0,.05.03.07.05l.43.79c.09.17.15.34.18.52.03.18,0,.34-.08.5-.08.16-.24.3-.46.42-.19.11-.37.16-.53.16-.16,0-.3-.04-.42-.11-.12-.08-.23-.18-.33-.31l-1.02,1.51s-.01.02-.02.03c0,0-.02.01-.02.01-.02.01-.04.02-.07.01-.02,0-.05-.01-.07-.02-.02-.01-.04-.03-.05-.05Zm.96-2.47l.36.66c.12.22.27.36.45.44.18.08.39.05.64-.08.24-.13.38-.29.41-.49.03-.19-.02-.4-.13-.61l-.36-.66-1.36.74Z"/>
        <path d="m76.59,25.39s-.02-.06,0-.09c0-.03.03-.05.06-.07l3.27-1.51s.06-.01.09,0c.03.01.05.04.06.06l.78,1.69s.02.07,0,.09c-.02.03-.04.05-.06.06-.03.01-.06.02-.09.01-.03,0-.06-.02-.07-.06l-.72-1.56-1.39.64.35.75s.01.06,0,.09c-.01.03-.04.05-.07.06-.03.01-.05.01-.08,0-.03,0-.05-.03-.07-.06l-.35-.75-1.4.65.72,1.56s.01.06,0,.09c-.02.03-.04.05-.07.06-.03.01-.05.02-.08.01-.03,0-.05-.02-.07-.06l-.78-1.69Z"/>
        <path d="m77.64,27.74s-.01-.06,0-.09c0-.03.03-.05.06-.06l3.36-1.28s.06-.01.09,0,.05.04.06.07l.66,1.74s.01.07,0,.09c-.02.03-.04.04-.07.05-.03.01-.06.01-.09,0-.03,0-.06-.03-.07-.06l-.61-1.6-1.43.55.29.77s.01.06,0,.09c-.02.03-.04.05-.07.06-.03,0-.05.01-.08,0-.03,0-.05-.03-.06-.07l-.29-.77-1.44.55.61,1.6s0,.06,0,.09-.04.05-.08.06c-.03,0-.05.01-.09,0s-.05-.03-.07-.06l-.66-1.74Z"/>
        <path d="m78.99,31.82c-.06-.21-.08-.41-.06-.57.02-.17.07-.3.13-.4.06-.1.12-.16.17-.17.02,0,.04,0,.07,0,.03,0,.05.02.07.03.02.01.03.03.03.04,0,.03,0,.07-.04.11-.03.04-.07.1-.11.17-.04.07-.07.17-.08.28-.01.11,0,.25.05.42.05.17.12.31.21.41.09.1.2.17.33.2.13.03.28.02.44-.02.17-.05.31-.12.39-.21s.15-.2.19-.31.06-.24.07-.37.02-.26.03-.39c.01-.13.03-.26.07-.37.04-.12.1-.22.2-.32s.23-.16.41-.21c.18-.05.34-.06.47-.03s.25.09.34.18c.09.09.17.18.23.29.06.11.1.22.13.33.03.1.05.2.06.3s.01.19.01.28-.01.16-.03.22c-.02.06-.05.09-.09.1-.02,0-.04,0-.07,0-.02,0-.05-.01-.07-.02-.02-.01-.04-.03-.04-.05,0-.03,0-.07.01-.13s.03-.15.03-.25c0-.1-.01-.23-.05-.38-.03-.12-.09-.24-.16-.34s-.16-.19-.27-.24c-.11-.05-.25-.05-.42,0-.14.04-.25.1-.32.19-.07.09-.12.19-.14.3s-.04.24-.05.37c0,.13-.02.26-.03.39-.02.13-.05.26-.1.38-.05.12-.13.23-.24.33s-.27.17-.47.23c-.24.07-.45.08-.62.03-.18-.05-.32-.14-.43-.27-.11-.13-.2-.3-.25-.5Z"/>
        <path d="m79.6,34.17s0-.07,0-.1c.01-.03.04-.05.07-.06l3.38-.71-.19-.88s0-.06.02-.09c.02-.03.05-.04.08-.05.03,0,.06,0,.09.01.03.02.05.04.06.07l.43,2.02s0,.07-.02.09c-.02.02-.05.04-.08.05-.03,0-.07,0-.1,0-.03-.01-.05-.04-.06-.08l-.19-.88-3.38.71s-.06,0-.09-.02c-.02-.02-.04-.05-.05-.08Z"/>
        <path d="m80.02,36.74c-.03-.2-.02-.38.03-.55.05-.17.15-.31.29-.42.14-.11.35-.19.61-.23l2.63-.37s.07,0,.09.03c.02.02.03.05.04.09,0,.03,0,.06-.01.09-.01.03-.04.05-.07.05l-2.63.37c-.28.04-.48.14-.6.3s-.16.36-.12.61c.03.24.13.43.29.55.16.12.37.16.66.12l2.63-.37s.07,0,.09.03c.02.02.03.05.04.09,0,.03,0,.06-.01.09-.01.03-.04.05-.07.05l-2.63.37c-.26.04-.48.02-.65-.05-.17-.07-.3-.18-.4-.33-.09-.15-.16-.32-.18-.51Z"/>
        <path d="m80.28,38.65s0-.06.03-.09c.02-.02.04-.04.07-.04l3.6-.24s.05,0,.08.03.03.05.04.08l.06.92c.01.2-.01.38-.07.54s-.17.3-.32.4c-.15.1-.36.16-.62.18l-1.63.11c-.26.02-.48-.01-.64-.1-.16-.08-.29-.2-.37-.35s-.13-.33-.14-.53l-.06-.92Zm.26.12l.05.79c.02.25.1.43.24.56.15.13.36.19.65.17l1.63-.11c.28-.02.49-.1.62-.25s.18-.35.17-.59l-.05-.79-3.31.22Z"/>
        <path d="m80.42,41.51s0-.07.03-.09c.02-.03.05-.04.08-.04l3.6-.06s.07.01.08.04c.02.03.02.06.02.09,0,.03,0,.06-.02.09-.02.03-.04.04-.08.04l-3.6.06s-.06-.01-.08-.04c-.02-.03-.03-.06-.03-.09Z"/>
        <path d="m80.37,43.43c0-.2.05-.38.13-.53s.2-.28.36-.36c.16-.09.37-.13.64-.12l1.66.06c.26,0,.47.06.63.16.16.1.27.23.33.39.07.16.1.34.09.53,0,.2-.05.38-.13.53-.08.16-.2.28-.36.37-.16.09-.37.13-.64.12l-1.66-.06c-.26,0-.47-.06-.63-.16s-.27-.23-.33-.39c-.07-.16-.1-.34-.09-.54Zm.25,0c0,.25.05.44.19.59.13.15.34.22.63.23l1.66.06c.29,0,.5-.05.64-.19.14-.14.22-.33.23-.57,0-.25-.05-.44-.19-.59-.13-.14-.34-.22-.63-.23l-1.66-.06c-.29,0-.5.05-.64.19-.14.13-.22.33-.23.57Z"/>
        <path d="m81.35,46.31s.02-.05.04-.07c.03-.02.05-.02.08-.02.03,0,.06.02.08.04.02.02.03.05.02.08l-.17,1.35s-.02.06-.04.08-.06.03-.09.02c-.03,0-.06-.02-.08-.04-.02-.03-.03-.05-.02-.08l.17-1.35Z"/>
        <path d="m79.76,49.38s.02-.06.05-.08c.02-.02.05-.03.09-.02l3.5.78s.08.03.09.06c.01.03.01.06,0,.09,0,.03-.02.06-.05.08-.03.02-.06.04-.1.05s-.07.03-.11.03l-2.03.52,1.61,1.35s.05.05.08.08.05.06.07.09c.02.03.02.06.01.09,0,.04-.02.07-.05.09-.02.02-.06.02-.1.01l-3.5-.78s-.06-.03-.07-.06-.02-.06,0-.1c0-.03.02-.06.05-.08s.05-.03.09-.02l3.04.68-1.53-1.29s-.06-.05-.07-.07c-.01-.02-.01-.05,0-.07,0-.02.02-.03.04-.05s.05-.03.09-.04l1.94-.51-3.05-.68s-.06-.03-.07-.06c-.01-.03-.02-.06,0-.09Z"/>
        <path d="m78.68,53.49c.06-.19.15-.35.26-.48s.26-.21.44-.26c.18-.04.39-.02.65.06l1.59.49c.25.08.44.19.56.32.12.13.2.29.22.46.02.17,0,.35-.05.54-.06.19-.15.35-.26.48-.12.13-.27.22-.44.26-.18.04-.39.02-.65-.06l-1.59-.49c-.25-.08-.44-.19-.56-.32-.12-.14-.2-.29-.22-.46-.02-.17,0-.36.05-.54Zm.24.07c-.07.24-.07.44.02.62.09.18.27.31.54.39l1.59.49c.27.08.5.08.67-.01s.3-.26.37-.49.07-.44-.03-.61c-.09-.17-.27-.3-.54-.39l-1.59-.49c-.27-.08-.5-.08-.67.01-.17.09-.3.26-.37.49Z"/>
        <path d="m77.75,56.13c.07-.18.17-.34.3-.46.13-.12.28-.19.46-.22s.39,0,.64.1l1.55.61c.25.1.43.22.54.36.11.14.18.3.19.48.01.17-.02.35-.09.53-.07.18-.17.34-.3.46-.13.12-.28.2-.46.23s-.39,0-.64-.1l-1.55-.61c-.25-.1-.43-.22-.54-.36-.11-.14-.18-.3-.18-.48s.02-.35.09-.54Zm.24.09c-.09.23-.1.44-.02.62s.25.32.51.43l1.55.61c.27.1.49.12.67.04.18-.08.31-.24.41-.47.09-.23.1-.44.02-.61-.08-.18-.25-.32-.51-.43l-1.55-.61c-.27-.1-.49-.12-.67-.04-.18.08-.31.23-.4.46Z"/>
        <path d="m77.04,57.91s.04-.05.07-.07c.03-.02.06-.02.09,0l3.24,1.56s.06.04.06.07,0,.06-.02.09c-.01.03-.04.05-.07.06-.03.01-.07.02-.11.03-.04,0-.08,0-.11,0l-3.34.07,2.78,1.34s.05.04.05.07c0,.03,0,.06-.02.09-.01.03-.03.05-.06.07-.03.02-.06.02-.09,0l-3.25-1.57s-.05-.04-.05-.07c0-.03,0-.06.01-.09.02-.04.05-.06.11-.07.05,0,.1-.01.15-.02l3.38-.08-2.78-1.34s-.05-.04-.05-.07c0-.03,0-.06.01-.09Z"/>
        <path d="m75.25,61.37s.04-.05.07-.06c.03-.01.06,0,.09.01l3.08,1.87s.05.04.05.07c0,.03,0,.06-.03.09-.02.03-.04.05-.07.06s-.06.01-.09,0l-2.96-1.79-.8,1.32s-.04.04-.07.04c-.03,0-.06,0-.09-.02-.03-.02-.05-.04-.06-.06s-.01-.05,0-.08l.87-1.44Z"/>
        <path d="m74.18,63.11s.03-.03.05-.04.04-.02.06-.02c.02,0,.04,0,.06.02,0,0,.02.01.02.02l2.32,2.98s.03.06.03.09-.02.06-.03.08-.04.05-.07.06c-.03.02-.06.02-.09,0l-3.59-1.16s-.02,0-.03-.01c-.01,0-.02-.03-.03-.05,0-.02,0-.05,0-.07,0-.02.01-.05.03-.07.01-.02.03-.03.05-.04.02,0,.04,0,.07,0l.83.27.86-1.23-.54-.68s-.03-.04-.03-.07c0-.02.01-.05.03-.07Zm.69,1.02l-.78,1.11,2.21.73-1.44-1.84Z"/>
        <path d="m71.86,66.21c.12-.15.26-.27.42-.34s.33-.1.51-.07c.18.03.37.12.58.29l1.29,1.05c.21.17.34.34.41.51s.08.34.03.51c-.04.17-.13.33-.25.48-.14.17-.29.29-.44.37-.16.07-.32.1-.47.08-.16-.02-.3-.08-.43-.18-.04-.03-.06-.06-.06-.09s.01-.06.03-.09c.02-.03.05-.04.08-.05.03,0,.06,0,.09.02.12.08.25.12.36.13.12,0,.23-.01.34-.07.11-.06.21-.15.31-.26.16-.19.22-.39.2-.58-.02-.19-.14-.38-.36-.56l-1.29-1.05c-.22-.18-.43-.26-.62-.24-.19.02-.37.13-.53.32-.16.19-.22.39-.21.58s.14.38.36.56l.55.44.48-.6s.05-.04.08-.04c.03,0,.06.01.08.03.02.02.04.04.05.08,0,.03,0,.06-.02.09l-.58.72s-.04.04-.07.04-.06,0-.08-.03l-.65-.52c-.21-.17-.34-.34-.41-.51-.07-.17-.08-.34-.03-.51.04-.17.13-.33.25-.49Z"/>
        <path d="m69.43,68.98s.06-.04.11-.03.09.02.13.03l1.73.49.49-.53-1.22-1.14s-.04-.05-.03-.09c0-.03.02-.06.04-.08.02-.03.05-.04.08-.05.03,0,.06,0,.09.03l2.63,2.46s.03.04.03.07c0,.03,0,.05-.03.08l-.61.66c-.13.14-.28.25-.44.33-.16.08-.33.11-.5.08-.18-.03-.36-.13-.55-.3-.16-.15-.27-.3-.32-.45s-.06-.3-.02-.44.1-.28.19-.41l-1.75-.49s-.02,0-.03-.01-.02-.01-.02-.02c-.02-.02-.03-.04-.03-.06s0-.05,0-.07c0-.02.01-.05.03-.06Zm2.65.13l-.51.55c-.17.18-.26.37-.28.56-.02.2.08.39.28.58.2.19.4.26.59.23.19-.03.37-.14.54-.32l.51-.55-1.13-1.05Z"/>
        <path d="m68.86,69.55s.05-.03.08-.04c.03,0,.06,0,.08.03l2.46,2.63s.03.05.03.08c0,.03-.02.06-.04.08l-1.36,1.27s-.06.04-.09.03-.06-.02-.07-.04c-.02-.02-.03-.05-.04-.08,0-.03,0-.06.03-.09l1.25-1.17-1.05-1.12-.6.56s-.05.03-.08.03c-.03,0-.06-.02-.08-.05-.02-.02-.03-.05-.03-.08s0-.06.04-.08l.6-.56-1.05-1.12-1.25,1.17s-.05.03-.09.03c-.03,0-.06-.02-.08-.05-.02-.02-.03-.05-.04-.08,0-.03,0-.06.03-.09l1.36-1.27Z"/>
        <path d="m66.96,71.28s.05-.03.08-.03c.03,0,.06.01.08.04l2.28,2.78s.03.06.02.09c0,.03-.02.06-.05.08l-1.44,1.18s-.06.03-.09.02c-.03,0-.05-.02-.07-.05-.02-.02-.03-.05-.03-.09,0-.03,0-.06.04-.08l1.33-1.09-.97-1.19-.64.52s-.06.03-.09.02-.06-.02-.08-.05c-.02-.02-.03-.05-.03-.08,0-.03.01-.06.04-.08l.64-.52-.98-1.19-1.33,1.09s-.06.03-.09.02c-.03,0-.06-.03-.08-.05-.02-.02-.03-.05-.03-.08s.01-.06.04-.08l1.44-1.18Z"/>
        <path d="m63.52,73.85c.18-.12.36-.2.53-.23.17-.03.31-.03.42,0,.12.03.19.06.22.11.01.02.02.04.02.07,0,.03,0,.05,0,.07s-.02.04-.03.05c-.03.02-.06.02-.12,0-.05-.02-.12-.03-.2-.05-.08-.02-.18-.01-.29,0-.11.02-.24.08-.38.18-.15.1-.26.21-.32.33-.07.12-.1.24-.09.38.01.13.07.27.16.41.1.15.21.25.32.31s.23.08.36.08c.12,0,.25-.02.37-.05s.25-.07.38-.1c.13-.03.25-.05.38-.05.12,0,.25.03.36.09.12.06.23.17.33.32.11.16.16.3.17.44.01.14,0,.26-.06.38s-.12.22-.21.31c-.09.09-.18.17-.27.23-.09.06-.18.11-.27.15-.09.04-.18.07-.26.1-.08.02-.16.04-.22.04-.06,0-.1-.02-.12-.05-.01-.02-.02-.04-.02-.06,0-.02,0-.05,0-.07,0-.02.02-.04.04-.06.02-.02.07-.03.13-.03.06,0,.15-.02.25-.05.1-.03.21-.08.34-.17.1-.07.2-.16.28-.26.08-.1.13-.21.14-.34.01-.12-.03-.26-.13-.4-.08-.12-.18-.21-.28-.24s-.21-.05-.33-.04c-.12.01-.24.04-.36.07-.12.03-.25.07-.38.09-.13.03-.26.04-.39.03s-.26-.05-.39-.12c-.13-.07-.25-.2-.37-.37-.14-.2-.21-.4-.22-.58-.01-.18.03-.35.12-.5s.22-.28.4-.4Z"/>
        <path d="m61.49,75.17s.06-.02.09-.02c.03,0,.06.02.07.05l1.75,2.98.78-.46s.06-.02.09,0c.03.01.05.03.07.06.02.03.02.06.02.09,0,.03-.02.06-.05.08l-1.78,1.04s-.06.02-.09.01c-.03-.01-.05-.03-.07-.06-.02-.03-.03-.06-.02-.09s.02-.06.06-.08l.77-.45-1.75-2.98s-.02-.06,0-.09c.01-.03.03-.05.06-.07Z"/>
        <path d="m59.18,76.39c.18-.09.35-.14.53-.14.18,0,.34.04.49.14.15.1.29.27.41.51l1.18,2.37s.02.06,0,.09c-.02.03-.04.05-.07.06-.03.01-.06.02-.09.02-.03,0-.06-.02-.07-.05l-1.18-2.37c-.13-.26-.28-.41-.47-.47-.19-.06-.39-.04-.62.08-.22.11-.36.26-.43.44s-.03.41.09.66l1.18,2.37s.02.06,0,.09-.04.05-.07.06c-.03.01-.06.02-.09.02-.03,0-.06-.02-.07-.05l-1.18-2.37c-.12-.24-.17-.45-.16-.63s.08-.34.19-.48c.11-.14.25-.25.43-.34Z"/>
        <path d="m57.46,77.24s.06-.01.09,0c.03.01.05.03.06.05l1.37,3.34s0,.05,0,.08-.04.05-.07.06l-.86.35c-.18.08-.36.11-.54.1-.18,0-.34-.07-.48-.18-.15-.11-.27-.29-.37-.53l-.62-1.51c-.1-.25-.14-.46-.11-.64.03-.18.1-.34.22-.46.12-.13.27-.23.46-.31l.86-.35Zm-.04.29l-.73.3c-.23.09-.38.23-.46.41-.08.18-.06.4.05.67l.62,1.51c.11.26.25.43.43.51.18.07.39.07.61-.03l.73-.3-1.26-3.07Z"/>
        <path d="m54.79,78.27s.06-.01.1,0c.03,0,.05.03.06.06l1.19,3.4s0,.07-.01.09c-.02.02-.05.04-.08.05-.03.01-.06.01-.09,0-.03,0-.05-.03-.07-.06l-1.19-3.4s0-.06.01-.09c.02-.03.04-.05.07-.06Z"/>
        <path d="m52.94,78.84c.19-.06.37-.07.54-.05.17.03.33.1.46.23.13.13.24.32.31.57l.47,1.6c.07.25.09.47.05.65-.04.18-.13.32-.26.44-.13.11-.29.2-.48.25-.19.06-.37.07-.55.05-.17-.02-.33-.1-.46-.23s-.24-.32-.31-.57l-.47-1.6c-.07-.25-.09-.47-.05-.65.04-.18.13-.32.27-.44.13-.12.29-.2.48-.26Zm.08.24c-.24.07-.4.19-.5.36-.1.17-.1.39-.02.67l.47,1.6c.08.27.21.46.38.55.17.09.38.1.62.03.24-.07.4-.19.5-.36.1-.17.1-.39.02-.67l-.47-1.6c-.08-.27-.21-.46-.38-.55-.17-.09-.38-.1-.61-.03Z"/>
        <path d="m50.5,80.67s.05,0,.08.02c.02.02.04.04.05.07,0,.03,0,.06-.01.09s-.04.04-.07.05l-1.33.26s-.06,0-.09-.02-.04-.04-.05-.08c0-.03,0-.06.02-.09.02-.03.04-.04.07-.05l1.33-.26Z"/>
        <path d="m47.1,80.12s.07,0,.09.02c.03.02.04.04.05.08l.35,3.56s0,.08-.03.1-.05.03-.09.03c-.03,0-.06,0-.09-.03s-.06-.05-.08-.08c-.03-.03-.05-.06-.06-.09l-1.13-1.77-.78,1.96s-.03.07-.05.1c-.02.04-.04.07-.06.09-.03.03-.05.04-.08.04-.04,0-.07,0-.1-.02-.03-.01-.04-.05-.05-.1l-.35-3.56s0-.06.03-.08c.02-.02.05-.03.09-.04.03,0,.06,0,.09.02s.05.04.05.08l.31,3.1.75-1.86s.03-.07.05-.09c.02-.02.04-.03.06-.03.02,0,.04,0,.06.02.02.01.04.04.07.08l1.1,1.69-.31-3.11s0-.06.03-.08c.03-.02.05-.03.09-.04Z"/>
        <path d="m42.87,80.38c.2,0,.38.03.54.1s.29.18.38.34c.1.16.15.37.15.63l.03,1.67c0,.26-.04.48-.13.64s-.21.28-.37.35c-.16.08-.33.12-.53.12-.2,0-.38-.03-.54-.1-.16-.07-.29-.18-.39-.34-.1-.16-.15-.37-.15-.63l-.03-1.67c0-.26.04-.48.13-.64s.21-.28.37-.35c.16-.08.34-.12.53-.12Zm0,.25c-.25,0-.44.08-.58.22-.14.14-.2.35-.2.64l.03,1.67c0,.29.08.5.22.63.14.13.34.2.59.2.25,0,.44-.08.58-.22.14-.14.2-.35.2-.64l-.03-1.67c0-.29-.08-.5-.22-.63-.14-.13-.34-.2-.58-.2Z"/>
        <path d="m40.06,80.33c.2.01.37.06.53.14s.27.2.36.37c.08.16.12.38.1.64l-.09,1.66c-.01.26-.07.47-.17.63-.1.15-.23.26-.39.33-.16.06-.34.09-.53.08-.2-.01-.38-.06-.53-.14s-.28-.2-.36-.37c-.08-.16-.12-.38-.1-.64l.09-1.66c.01-.26.07-.47.17-.63.1-.15.23-.26.4-.33.16-.06.34-.09.54-.08Zm0,.25c-.25-.01-.44.05-.59.18-.15.13-.23.34-.24.62l-.09,1.66c-.02.29.04.5.18.64.13.14.32.22.57.24s.44-.05.59-.18c.15-.13.23-.34.24-.62l.09-1.66c.02-.29-.04-.5-.17-.64-.13-.14-.32-.22-.57-.24Z"/>
        <path d="m38.15,80.23s.06.02.09.04.03.05.03.09l-.46,3.57s-.02.07-.05.08c-.03.01-.06.02-.09.01-.03,0-.06-.02-.08-.04-.02-.03-.04-.06-.06-.09-.02-.04-.03-.07-.04-.1l-1.12-3.15-.39,3.07s-.02.06-.05.07c-.03.01-.06.02-.09.01-.03,0-.06-.02-.08-.04-.03-.02-.04-.05-.03-.08l.46-3.57s.02-.06.05-.08c.03-.02.06-.02.09-.02.04,0,.08.03.1.08.03.05.05.09.06.14l1.14,3.18.39-3.07s.02-.06.05-.08c.03-.02.06-.02.09-.02Z"/>
        <path d="m34.3,79.63s.06.02.08.05c.02.02.03.05.02.09l-.79,3.51s-.03.06-.06.07-.06.01-.1,0c-.03,0-.06-.02-.08-.05s-.03-.05-.02-.09l.76-3.38-1.5-.34s-.05-.02-.06-.05c0-.03-.01-.06,0-.09s.02-.06.04-.08c.02-.02.05-.03.08-.02l1.64.37Z"/>
        <path d="m32.3,79.17s.04.02.06.03.03.03.04.05c0,.02,0,.04,0,.06,0,0,0,.02-.01.03l-2.09,3.14s-.05.05-.08.05c-.03,0-.06,0-.09,0-.03,0-.06-.02-.08-.05-.02-.02-.04-.05-.04-.08l-.03-3.77s0-.02,0-.03c0-.02.02-.03.04-.05.02-.01.04-.02.07-.03.02,0,.05,0,.07,0s.04.02.06.04.02.04.02.07v.87s1.45.43,1.45.43l.48-.72s.03-.04.06-.05.05,0,.08,0Zm-.75.98l-1.3-.39v2.33s1.3-1.94,1.3-1.94Z"/>
        <path d="m28.64,77.95c.18.07.33.16.46.29.12.12.2.28.23.46.03.18,0,.39-.09.64l-.59,1.56c-.09.25-.21.43-.35.55-.14.12-.3.18-.47.19s-.35-.02-.53-.08c-.21-.08-.37-.18-.49-.31-.12-.13-.2-.27-.23-.42-.03-.16-.02-.31.04-.47.02-.05.04-.07.07-.08.03-.01.06,0,.1,0,.03.01.06.03.07.06s.02.06,0,.09c-.04.14-.04.27-.01.39.03.11.09.21.17.3.09.09.2.15.35.21.23.09.44.09.62.01.18-.08.32-.25.42-.52l.59-1.56c.1-.27.11-.49.03-.67s-.24-.31-.47-.4c-.23-.09-.44-.09-.62-.01-.18.08-.32.25-.42.52l-.25.66.72.27s.05.03.06.06c0,.03,0,.06,0,.09-.01.03-.03.05-.06.07-.03.02-.06.02-.09,0l-.87-.33s-.05-.03-.06-.06,0-.06,0-.09l.29-.78c.09-.25.21-.43.35-.55s.3-.18.48-.19.36.02.54.09Z"/>
        <path d="m25.24,76.52s.06.05.06.1c0,.05.01.1.01.14l.08,1.8.66.3.7-1.52s.04-.05.07-.06c.03,0,.06,0,.09.01.03.01.06.04.07.06.02.03.02.06,0,.09l-1.5,3.27s-.03.04-.06.05-.05,0-.09,0l-.82-.37c-.18-.08-.33-.18-.46-.31-.13-.12-.2-.28-.23-.45-.03-.18,0-.38.12-.62.09-.2.2-.35.33-.44.13-.1.26-.15.41-.16.15-.01.3,0,.45.05l-.08-1.82s0-.02,0-.03c0,0,0-.02,0-.02,0-.02.03-.04.05-.05.02-.01.04-.02.07-.02s.05,0,.07,0Zm.71,2.55l-.68-.31c-.22-.1-.43-.13-.62-.09-.19.04-.34.19-.46.45-.11.25-.13.46-.03.63s.25.31.47.41l.68.31.64-1.4Z"/>
        <path d="m24.53,76.15s.05.04.06.07,0,.06,0,.09l-1.72,3.16s-.04.05-.07.05c-.03,0-.06,0-.09-.01l-1.63-.89s-.05-.04-.05-.07c0-.03,0-.06.02-.08.02-.03.04-.05.07-.06.03-.02.06-.01.09,0l1.51.82.73-1.35-.72-.39s-.05-.04-.05-.07,0-.06.02-.09c.01-.02.03-.04.06-.06.03-.01.06-.01.09,0l.72.39.74-1.35-1.51-.82s-.05-.04-.05-.07c0-.03,0-.06.02-.09.01-.02.03-.04.06-.06.03-.01.06-.01.09,0l1.63.89Z"/>
        <path d="m22.28,74.89s.05.04.06.07c.01.03,0,.06-.01.09l-1.93,3.04s-.04.05-.07.05-.06,0-.09-.02l-1.57-1s-.05-.05-.05-.08c0-.03,0-.06.02-.08.02-.03.04-.05.07-.06s.06-.01.09,0l1.45.92.82-1.3-.7-.44s-.05-.04-.05-.07,0-.06.02-.09c.01-.02.04-.04.06-.05s.06,0,.09.01l.7.44.83-1.3-1.45-.92s-.05-.04-.05-.08,0-.06.02-.09c.02-.02.04-.04.07-.05s.06,0,.09.01l1.57,1Z"/>
        <path d="m18.77,72.44c.18.14.31.28.39.42.08.15.13.28.14.4s0,.2-.03.24c-.01.02-.03.03-.06.04-.03.01-.05.02-.07.02-.02,0-.04,0-.05-.02-.02-.02-.04-.06-.04-.11,0-.05,0-.12-.02-.21-.01-.08-.04-.17-.1-.27s-.15-.2-.29-.3c-.14-.11-.28-.18-.41-.21-.13-.03-.26-.02-.38.04s-.24.15-.34.28c-.11.14-.17.28-.19.4-.02.13,0,.25.04.36s.1.23.17.34c.07.11.14.22.21.33.07.11.13.23.17.34.04.12.05.24.03.37-.02.13-.09.27-.2.41-.11.15-.24.25-.36.3-.13.05-.25.07-.38.06-.13-.01-.25-.05-.36-.1-.11-.05-.21-.12-.3-.19-.08-.06-.16-.13-.23-.21s-.13-.15-.18-.22c-.05-.07-.08-.14-.1-.19-.02-.06-.01-.1,0-.13.01-.02.03-.03.05-.04s.05-.02.07-.02c.02,0,.05,0,.07.02.02.02.05.06.07.12.02.06.06.13.12.22.06.09.15.18.27.27.1.08.21.14.33.18.12.05.24.06.36.03s.23-.11.34-.24c.09-.12.14-.23.14-.34s-.02-.22-.07-.33c-.05-.11-.11-.21-.18-.32-.07-.11-.14-.22-.21-.34-.07-.12-.12-.24-.15-.37-.03-.13-.03-.26,0-.41s.11-.3.24-.46c.15-.2.31-.33.48-.39s.34-.08.51-.04c.17.04.34.12.5.25Z"/>
        <path d="m16.86,70.91s.04.05.05.08c0,.03,0,.06-.02.09l-2.28,2.6.68.6s.04.05.04.08c0,.03-.01.06-.03.09-.02.02-.05.04-.08.04-.03,0-.06,0-.09-.03l-1.55-1.36s-.04-.05-.04-.08.01-.06.03-.08c.02-.03.05-.04.08-.05s.06,0,.09.03l.67.59,2.28-2.6s.05-.04.08-.04c.03,0,.06.02.09.04Z"/>
        <path d="m14.98,69.1c.14.14.24.29.3.46.06.16.07.34.02.51-.05.18-.16.36-.35.55l-1.88,1.87s-.06.04-.09.03c-.03,0-.06-.02-.08-.05-.02-.02-.04-.05-.05-.08,0-.03,0-.06.03-.09l1.88-1.87c.2-.2.3-.4.3-.6s-.09-.38-.27-.56c-.17-.18-.36-.26-.56-.27s-.4.1-.6.3l-1.88,1.87s-.06.04-.09.03c-.03,0-.06-.02-.08-.05-.02-.02-.04-.05-.05-.08,0-.03,0-.06.03-.09l1.88-1.87c.19-.19.37-.3.55-.35s.35-.04.51.03c.16.06.32.16.45.3Z"/>
        <path d="m13.64,67.74s.03.06.03.09c0,.03-.01.06-.03.07l-2.74,2.35s-.05.03-.08.02c-.03,0-.06-.02-.08-.05l-.6-.7c-.13-.15-.22-.31-.27-.48-.05-.17-.04-.34.02-.51s.19-.35.39-.52l1.24-1.06c.2-.17.39-.28.57-.31.18-.03.35-.01.51.06.16.07.3.19.43.34l.6.7Zm-.28.06l-.51-.6c-.16-.19-.34-.29-.53-.31-.19-.02-.4.07-.62.25l-1.24,1.06c-.22.19-.33.38-.35.57-.01.2.06.39.22.57l.51.6,2.52-2.16Z"/>
        <path d="m11.82,65.54s.03.06.03.09-.01.06-.04.08l-2.85,2.2s-.06.03-.09.02c-.03-.01-.05-.03-.07-.06-.02-.02-.03-.05-.04-.08,0-.03,0-.06.04-.08l2.85-2.2s.06-.03.09-.02c.03.01.06.03.08.05Z"/>
        <path d="m10.69,63.96c.11.16.19.33.22.5.03.17,0,.34-.07.51-.08.17-.22.32-.44.48l-1.37.95c-.22.15-.42.23-.6.25-.18.01-.35-.02-.5-.11-.15-.09-.28-.21-.39-.37-.11-.16-.19-.33-.22-.5s0-.34.07-.51c.08-.17.22-.32.44-.48l1.37-.95c.22-.15.42-.23.6-.25s.35.02.5.11c.15.09.28.21.39.37Zm-.2.15c-.14-.2-.31-.32-.5-.36s-.41.03-.64.19l-1.37.95c-.23.16-.37.34-.4.54-.03.19.02.39.16.6.14.2.31.32.5.36s.41-.03.64-.19l1.37-.95c.23-.16.37-.34.4-.53.03-.19-.02-.39-.16-.59Z"/>
        <path d="m8.19,62.23s.02.05,0,.08-.03.05-.05.07c-.03.02-.06.02-.09.02-.03,0-.05-.02-.07-.05l-.67-1.18s-.02-.06-.01-.09c0-.03.03-.06.06-.07.03-.02.06-.02.09-.01s.05.03.07.05l.67,1.18Z"/>
        <path d="m7.63,58.82s.02.06.01.1c0,.03-.03.05-.06.07l-3.27,1.46s-.08.02-.11,0c-.03-.02-.05-.04-.06-.07-.01-.03-.01-.06,0-.09,0-.03.03-.07.05-.1.02-.03.04-.06.07-.09l1.32-1.64-2.1-.12s-.07,0-.11-.01c-.04,0-.07-.02-.11-.03-.03-.02-.05-.04-.07-.06-.02-.04-.02-.07-.01-.1,0-.03.03-.05.08-.07l3.27-1.46s.06-.01.09,0c.03.02.05.04.06.07.01.03.02.06,0,.09s-.03.06-.06.07l-2.84,1.27,2,.12s.07,0,.1.02c.02.01.04.03.05.05,0,.02,0,.04,0,.06s-.02.05-.05.09l-1.25,1.57,2.85-1.28s.06-.01.09,0c.03.02.05.04.06.07Z"/>
        <path d="m6.04,54.89c.07.19.09.37.08.54-.02.17-.08.33-.2.47s-.3.25-.55.34l-1.57.56c-.25.09-.46.12-.64.08-.18-.03-.33-.11-.45-.24-.12-.12-.22-.28-.28-.46-.07-.19-.09-.37-.08-.54.02-.18.08-.33.2-.47.12-.14.3-.25.55-.34l1.57-.56c.25-.09.46-.12.64-.08.18.03.33.11.45.24.12.13.22.28.28.47Zm-.23.09c-.08-.23-.21-.39-.39-.48s-.4-.08-.67.01l-1.57.56c-.27.1-.44.23-.53.41s-.08.38,0,.62c.08.23.21.39.39.48s.4.08.67-.01l1.57-.56c.27-.1.45-.23.53-.41.08-.18.08-.38,0-.62Z"/>
        <path d="m5.2,52.21c.05.19.06.37.04.55-.03.17-.11.32-.24.45-.13.13-.32.23-.58.3l-1.61.44c-.26.07-.47.08-.65.03-.18-.05-.32-.14-.43-.27-.11-.13-.19-.29-.25-.48-.05-.19-.06-.37-.04-.55.03-.17.11-.33.24-.46.13-.13.32-.23.58-.3l1.61-.44c.26-.07.47-.08.65-.03.18.05.32.14.43.27s.19.3.25.48Zm-.24.07c-.07-.24-.18-.41-.35-.51s-.39-.11-.67-.04l-1.61.44c-.28.08-.46.2-.56.37s-.11.38-.05.62.18.41.35.5c.17.1.39.11.67.03l1.61-.44c.28-.08.46-.2.56-.37.1-.17.11-.37.05-.61Z"/>
        <path d="m4.7,50.37s0,.07-.01.1c-.01.03-.04.05-.07.05l-3.53.69s-.07,0-.09-.02-.03-.05-.04-.09c0-.03,0-.06.02-.09s.04-.06.07-.09.06-.05.08-.07l2.64-2.05-3.03.59s-.06,0-.08-.02-.04-.05-.04-.08c0-.03,0-.06,0-.09.01-.03.03-.05.07-.06l3.54-.69s.06,0,.09.03c.02.02.04.05.05.08,0,.04,0,.08-.04.12-.04.04-.07.07-.11.1l-2.66,2.08,3.03-.59s.06,0,.09.03c.02.02.04.05.05.08Z"/>
        <path d="m4.07,46.52s0,.06-.02.09c-.02.03-.04.04-.08.04l-3.59.35s-.06,0-.08-.03c-.02-.02-.03-.05-.04-.09,0-.03,0-.06.02-.09s.04-.05.07-.05l3.45-.33-.15-1.53s0-.06.03-.07c.02-.02.05-.03.08-.03s.06,0,.09.01c.03.01.04.04.05.07l.16,1.67Z"/>
        <path d="m3.88,44.48s0,.04-.01.07-.02.04-.04.06c-.02.01-.03.02-.06.02-.01,0-.02,0-.03,0l-3.64-1s-.06-.03-.07-.06c-.01-.03-.02-.06-.02-.09,0-.03,0-.06.02-.09.01-.03.04-.05.07-.06l3.57-1.22s.02,0,.03,0c.02,0,.04,0,.06.02s.03.03.05.06.02.05.02.07c0,.02,0,.05-.02.07-.01.02-.03.03-.06.04l-.82.28.05,1.5.84.22s.05.02.06.04c.01.02.02.04.02.07Zm-1.16-.4l-.04-1.36-2.21.74,2.25.61Z"/>
        <path d="m3.89,40.62c0,.19-.05.37-.13.53-.08.16-.2.28-.36.36s-.37.12-.64.11l-1.66-.06c-.26,0-.47-.06-.63-.16-.15-.1-.27-.23-.33-.39-.07-.16-.1-.34-.09-.53,0-.22.05-.41.14-.56.08-.15.19-.27.33-.35s.29-.12.46-.11c.05,0,.08.02.1.04s.03.06.03.1c0,.03-.01.06-.03.09-.02.02-.05.04-.09.04-.15.01-.27.05-.37.11s-.18.15-.23.26c-.05.11-.08.24-.09.4,0,.25.05.44.18.59.13.14.34.22.63.23l1.66.06c.29.01.5-.05.64-.18.14-.13.22-.32.23-.57,0-.25-.05-.44-.18-.59-.13-.15-.34-.22-.63-.24l-.7-.03-.03.77s-.01.06-.04.08c-.02.02-.05.03-.08.03-.03,0-.06-.01-.08-.03s-.03-.05-.03-.08l.04-.92s.01-.06.04-.07.05-.03.08-.03l.83.03c.26.01.47.06.63.16.15.1.27.23.33.39.07.16.1.34.09.54Z"/>
        <path d="m4.17,36.94s-.03.07-.08.09-.09.04-.12.06l-1.68.64-.08.72,1.66.18s.06.02.08.05c.02.03.02.06.02.09,0,.03-.02.06-.04.09s-.05.03-.08.03l-3.58-.39s-.05-.01-.07-.04c-.02-.02-.03-.05-.03-.08l.1-.89c.02-.19.07-.37.15-.53.08-.16.2-.28.35-.37s.36-.11.62-.09c.22.02.39.08.52.17.13.09.22.2.28.33s.09.28.1.44l1.7-.66s.02,0,.03,0c.01,0,.02,0,.03,0,.02,0,.05.01.06.03.02.02.03.04.04.06.01.02.02.05.01.07Zm-2.2,1.48l.08-.74c.03-.25-.01-.45-.11-.62-.1-.17-.29-.27-.57-.29-.27-.03-.48.03-.61.17s-.21.33-.24.58l-.08.74,1.54.17Z"/>
        <path d="m4.28,36.14s-.02.06-.04.08c-.02.02-.05.03-.09.02l-3.54-.63s-.06-.02-.07-.05-.02-.06-.01-.09l.33-1.83s.02-.06.05-.08c.03-.01.06-.02.08-.01.03,0,.06.02.08.04.02.02.03.05.03.09l-.3,1.69,1.51.27.14-.81s.02-.06.05-.07c.03-.01.06-.02.09-.01.03,0,.05.02.07.04.02.02.03.05.02.09l-.14.81,1.52.27.3-1.69s.02-.06.05-.07c.03-.01.06-.02.1-.01.03,0,.05.02.08.04.02.02.03.05.02.09l-.33,1.83Z"/>
        <path d="m4.77,33.62s-.02.06-.05.07c-.02.02-.05.02-.09.02l-3.49-.87s-.06-.03-.07-.06-.02-.06,0-.09l.45-1.8s.03-.06.06-.07c.03-.01.06-.01.09,0,.03,0,.06.02.08.05.02.03.03.05.02.09l-.41,1.67,1.49.37.2-.8s.03-.06.05-.07c.03-.01.06-.02.09,0,.03,0,.05.02.07.04.02.02.02.05.02.09l-.2.8,1.49.37.41-1.67s.03-.06.06-.07.06-.01.1,0c.03,0,.05.02.07.04s.03.05.02.09l-.45,1.8Z"/>
        <path d="m5.98,29.52c-.07.21-.17.38-.28.5-.11.12-.23.21-.34.26-.11.05-.19.06-.24.04-.02,0-.04-.02-.06-.04s-.03-.04-.04-.06c0-.02,0-.04,0-.06.01-.03.04-.05.09-.07.05-.02.12-.04.19-.08.08-.04.15-.1.23-.18.08-.08.14-.21.2-.37.06-.17.08-.32.07-.46s-.07-.25-.16-.35c-.09-.1-.21-.18-.37-.23-.17-.06-.32-.08-.44-.05-.12.02-.24.07-.33.15s-.19.16-.27.27c-.08.1-.16.2-.25.31s-.17.19-.27.27c-.1.08-.21.13-.34.15-.13.02-.28,0-.46-.06-.18-.06-.31-.14-.4-.25-.09-.1-.15-.22-.18-.34-.03-.12-.03-.25-.02-.37.02-.12.04-.24.08-.35.03-.1.08-.19.13-.28.05-.09.1-.17.15-.24s.1-.12.15-.16c.05-.03.09-.05.13-.03.02,0,.04.02.06.04.02.02.03.04.04.06.01.02.01.04,0,.07,0,.03-.04.06-.09.1-.05.04-.11.1-.17.18-.06.08-.12.2-.17.34-.04.12-.06.24-.07.37,0,.13.02.25.09.35.06.11.18.19.34.25.14.05.27.06.37.03.11-.03.2-.09.29-.17s.17-.17.25-.27c.08-.1.16-.2.25-.3s.19-.19.3-.26.24-.11.38-.13c.15-.02.32,0,.51.08.23.08.41.19.53.33s.18.29.2.47,0,.36-.08.56Z"/>
        <path d="m6.83,27.23s-.03.06-.06.07-.06.02-.09,0l-3.18-1.35-.35.83s-.04.05-.07.06c-.03,0-.06,0-.09,0-.03-.01-.05-.03-.07-.06-.02-.03-.02-.06,0-.09l.8-1.9s.04-.06.07-.07c.03,0,.06,0,.09,0,.03.01.06.03.07.06.02.03.02.06,0,.1l-.35.83,3.18,1.35s.05.04.06.07c0,.03,0,.06,0,.1Z"/>
        <path d="m7.95,24.88c-.09.18-.2.32-.34.43-.14.11-.3.17-.48.18s-.39-.04-.63-.16l-2.37-1.2s-.05-.04-.05-.07c0-.03,0-.06.02-.09.01-.03.03-.05.06-.07.03-.02.06-.02.09,0l2.37,1.2c.26.13.48.16.66.1.19-.06.33-.21.45-.43.11-.22.14-.42.08-.61-.06-.19-.22-.35-.47-.47l-2.37-1.2s-.05-.04-.05-.07c0-.03,0-.06.02-.09.01-.03.03-.05.06-.07.03-.02.06-.02.09,0l2.37,1.2c.24.12.4.26.5.41.1.16.14.32.14.5,0,.18-.05.35-.14.52Z"/>
        <path d="m8.83,23.17s-.04.05-.07.06c-.03,0-.06,0-.08,0l-3.09-1.86s-.04-.04-.05-.07c0-.03,0-.06.02-.09l.48-.79c.1-.17.23-.3.37-.4.15-.1.31-.15.49-.14s.39.07.61.21l1.4.84c.23.14.38.29.47.45.09.16.12.33.1.5-.02.17-.08.35-.18.52l-.48.79Zm-.14-.25l.41-.68c.13-.21.17-.41.12-.6-.05-.19-.19-.36-.44-.51l-1.4-.84c-.24-.15-.46-.2-.65-.15-.19.05-.35.18-.48.39l-.41.68,2.84,1.71Z"/>
        <path d="m10.35,20.73s-.04.05-.07.06-.06,0-.09-.01l-2.99-2.01s-.05-.05-.05-.08c0-.03.01-.06.03-.09.02-.03.04-.05.07-.06.03-.01.06-.01.09.01l2.99,2.01s.04.05.04.08c0,.03,0,.06-.03.09Z"/>
        <path d="m11.49,19.18c-.12.16-.26.28-.41.36s-.32.11-.5.09c-.18-.02-.38-.11-.59-.27l-1.33-1c-.21-.16-.35-.32-.42-.49s-.09-.34-.05-.51c.04-.17.11-.33.23-.49.12-.16.26-.28.41-.36.15-.08.32-.12.5-.09.18.02.38.11.59.27l1.33,1c.21.16.35.32.42.49.07.17.09.34.05.51s-.11.34-.23.49Zm-.2-.15c.15-.2.21-.39.18-.59-.03-.2-.15-.38-.38-.55l-1.33-1c-.23-.17-.44-.24-.63-.21s-.37.14-.51.34c-.15.2-.21.39-.18.59.03.19.15.38.38.55l1.33,1c.23.17.44.24.63.21.19-.03.36-.14.51-.34Z"/>
        <path d="m12.35,16.25s-.04.03-.07.03c-.03,0-.06,0-.08-.03-.03-.02-.04-.05-.04-.08,0-.03,0-.06.02-.08l.91-1.01s.05-.04.08-.04c.03,0,.06,0,.09.03.02.02.04.05.04.08,0,.03,0,.06-.03.08l-.91,1.01Z"/>
      </g>
    </g>
  </g>
</svg>