<?xml version="1.0" encoding="UTF-8"?>
<svg id="Calque_2" data-name="Calque 2" xmlns="http://www.w3.org/2000/svg" viewBox="0 0 190.36 190.35">
  <defs>
    <style>
      .cls-1 {
        fill: #231f20;
      }

      .cls-2 {
        fill: #1a144b;
      }
    </style>
  </defs>
  <g id="Calque_1-2" data-name="Calque 1">
    <g>
      <g>
        <path class="cls-2" d="m148.28,125.37c-9.6,13.18-29.49,25.31-53.37,22.6-26.2-2.95-46.92-22.27-51.8-48.49-4.59-24.73,7.25-46.14,22.24-57.44-4.52,5.91-8.15,12.96-10.23,20.77-2.08,7.85-2.62,16.51-.94,25.6,4.88,26.23,25.6,45.54,51.8,48.49,10.45,1.19,20.14-.47,28.53-3.8,5.1-2.04,9.73-4.7,13.76-7.72Z"/>
        <path class="cls-2" d="m128.74,106.49c6.15-7.72,8.93-18.15,6.89-28.26-3.22-15.98-17.07-27.43-33.25-27.61-7.41-.09-14.01,2.22-19.27,5.66,5.57-7.05,15.4-13.11,27.35-12.98,16.18.18,30.03,11.64,33.25,27.61,2.8,13.83-3.42,28.22-14.97,35.58Z"/>
      </g>
      <g>
        <path class="cls-1" d="m36.88,31.18c-.06.05-.13.08-.2.08-.07,0-.14-.02-.19-.08l-5.27-6.15c-.07-.08-.1-.16-.08-.23.02-.07.06-.13.12-.18.05-.05.12-.07.2-.07s.16.01.25.04c.09.02.17.05.24.08l4.39,1.8-1.09-4.63c-.02-.08-.03-.16-.04-.25-.01-.09-.01-.17,0-.25.01-.08.04-.14.09-.18.07-.06.13-.09.2-.09.07,0,.14.03.21.12l5.27,6.15c.05.06.07.13.05.2-.02.07-.05.13-.11.18-.05.05-.12.07-.19.08-.08,0-.14-.02-.19-.08l-4.58-5.34,1.02,4.41c.03.09.03.17.02.22s-.04.1-.07.13c-.03.03-.07.04-.13.04-.06,0-.13-.01-.22-.05l-4.21-1.7,4.59,5.36c.05.06.07.13.05.2-.02.07-.06.13-.11.18Z"/>
        <path class="cls-1" d="m44.39,25.2c-.36.26-.74.43-1.12.51-.39.08-.77.03-1.15-.14s-.74-.49-1.1-.98l-2.21-3.04c-.35-.48-.55-.93-.59-1.34s.03-.79.23-1.13.47-.65.82-.9c.36-.26.74-.44,1.13-.51s.77-.04,1.15.13c.38.17.74.49,1.1.98l2.21,3.04c.35.48.55.93.59,1.34.04.41-.04.79-.23,1.14-.2.35-.47.65-.83.91Zm-.34-.45c.45-.33.71-.71.79-1.15.07-.44-.08-.92-.46-1.44l-2.21-3.04c-.38-.52-.79-.81-1.23-.88s-.89.07-1.34.4c-.45.33-.71.71-.79,1.15-.07.44.08.92.46,1.44l2.21,3.04c.38.52.79.82,1.22.88s.88-.06,1.33-.39Z"/>
        <path class="cls-1" d="m49.63,21.68c-.38.24-.77.38-1.16.43-.39.05-.77-.02-1.14-.22-.37-.19-.71-.54-1.02-1.05l-1.99-3.2c-.32-.51-.48-.97-.49-1.38s.09-.79.31-1.11.51-.61.89-.84c.38-.24.77-.38,1.16-.43.39-.05.77.02,1.14.22.37.19.71.54,1.02,1.05l1.99,3.2c.32.51.48.97.49,1.38s-.09.79-.31,1.12c-.22.33-.52.61-.89.85Zm-.31-.47c.47-.29.77-.66.87-1.09s0-.92-.35-1.47l-1.99-3.2c-.34-.55-.73-.87-1.16-.97-.43-.1-.89,0-1.36.3-.47.29-.76.66-.87,1.09-.1.43.02.92.36,1.47l1.99,3.2c.34.55.73.87,1.16.97.43.1.88,0,1.36-.29Z"/>
        <path class="cls-1" d="m53.33,19.39c-.07.04-.14.05-.21.04-.07-.01-.13-.05-.16-.12l-3.76-7.21c-.04-.08-.05-.15-.01-.21s.09-.11.16-.14c.06-.03.13-.04.21-.02.08.02.15.05.23.09.08.04.14.09.21.14l6.15,4.39-3.23-6.19c-.04-.07-.04-.14,0-.2.03-.06.09-.11.16-.15.06-.03.13-.05.21-.04.07,0,.13.04.17.11l3.77,7.22c.04.07.04.14,0,.21s-.08.12-.15.15c-.08.04-.18.04-.29-.02s-.21-.11-.29-.17l-6.22-4.42,3.23,6.19c.04.07.04.14,0,.21-.04.07-.08.12-.15.15Z"/>
        <path class="cls-1" d="m61.23,15.55c-.07.03-.13.03-.2.01-.07-.02-.12-.07-.15-.14l-3.07-7.54c-.03-.07-.02-.14.02-.2s.1-.1.17-.13c.07-.03.13-.03.21-.02.07.01.12.06.15.13l2.95,7.25,3.22-1.31c.07-.03.13-.02.18.02.05.04.1.1.12.16s.04.13.02.2-.05.12-.11.14l-3.52,1.43Z"/>
        <path class="cls-1" d="m65.53,13.82s-.09.02-.15.01c-.06,0-.1-.02-.15-.04-.04-.02-.07-.06-.09-.11,0-.02-.01-.05-.01-.07l-.18-8.53c0-.08.02-.15.07-.2.05-.05.11-.09.18-.11s.14-.03.21-.01c.07.01.13.05.18.11l4.93,6.96s.03.04.03.06c.01.04,0,.08-.01.13-.02.05-.05.1-.09.14s-.09.07-.14.08c-.05.02-.1.02-.15,0-.05-.01-.09-.05-.13-.1l-1.14-1.6-3.23,1.07.05,1.96c0,.06-.01.12-.05.16s-.08.07-.14.09Zm.12-2.78l2.91-.97-3.03-4.3.12,5.27Z"/>
        <path class="cls-1" d="m73.89,11.35c-.43.11-.83.13-1.22.05-.39-.07-.73-.26-1.02-.55-.29-.3-.51-.73-.66-1.31l-.93-3.65c-.15-.58-.16-1.07-.05-1.47.11-.4.32-.72.63-.97.31-.25.67-.43,1.1-.54.48-.12.91-.14,1.3-.06s.71.24.97.49c.26.25.44.55.53.92.03.11.02.19-.02.25-.04.06-.1.1-.19.12-.08.02-.15.02-.21,0-.06-.02-.11-.08-.14-.16-.12-.31-.28-.55-.48-.73-.2-.18-.44-.29-.71-.33-.27-.04-.58-.02-.92.06-.54.14-.93.4-1.16.77-.23.38-.26.88-.1,1.51l.93,3.65c.16.63.43,1.05.81,1.27.38.22.84.27,1.38.13.54-.14.93-.4,1.16-.78.23-.38.27-.88.11-1.51l-.39-1.54-1.68.43c-.08.02-.14,0-.2-.03-.06-.04-.09-.1-.11-.17-.02-.07-.01-.14.02-.2s.08-.11.16-.12l2.02-.51c.07-.02.13,0,.18.03.05.04.09.09.11.16l.46,1.82c.15.58.16,1.07.05,1.47-.11.4-.33.72-.64.97-.31.25-.68.43-1.12.54Z"/>
        <path class="cls-1" d="m82.07,9.61c-.08.02-.17-.02-.24-.11-.08-.09-.14-.16-.2-.23l-2.46-3.24-1.6.29.67,3.72c.01.08,0,.14-.06.2-.05.05-.12.09-.19.1-.08.01-.15,0-.21-.03s-.11-.09-.12-.16l-1.44-8.01c-.01-.06,0-.12.04-.17.04-.05.09-.09.17-.11l2-.36c.43-.08.85-.08,1.24-.01.4.07.74.25,1.02.54.28.29.48.72.58,1.29.09.49.08.9-.04,1.24-.11.34-.29.61-.55.82-.25.21-.55.37-.9.49l2.51,3.27s.03.04.04.06c0,.02.01.04.02.06,0,.05,0,.11-.02.15-.02.05-.06.09-.1.13-.04.04-.09.06-.14.07Zm-4.61-3.82l1.66-.3c.55-.1.97-.31,1.27-.64.3-.33.39-.8.28-1.42-.11-.61-.36-1.02-.75-1.22s-.86-.25-1.41-.15l-1.66.3.62,3.44Z"/>
        <path class="cls-1" d="m83.85,9.36c-.07,0-.14,0-.19-.04-.06-.04-.09-.09-.1-.17l-.89-8.08c0-.08.01-.14.06-.19.05-.05.11-.08.18-.08l4.18-.46c.09,0,.15.01.2.07.05.05.07.11.08.18,0,.07,0,.14-.04.21-.04.07-.09.11-.17.11l-3.86.43.38,3.45,1.85-.2c.08,0,.14.01.19.06s.08.11.09.19c0,.06,0,.12-.04.18s-.09.09-.18.1l-1.85.2.38,3.46,3.86-.43c.08,0,.14.01.19.07.05.05.08.12.09.2,0,.06,0,.13-.04.19-.03.06-.09.1-.18.11l-4.18.46Z"/>
        <path class="cls-1" d="m89.61,8.8c-.07,0-.13-.02-.19-.06-.06-.04-.09-.1-.09-.18l-.35-8.12c0-.08.02-.14.08-.19.05-.05.12-.07.19-.07L93.43,0c.09,0,.15.02.19.08.04.06.06.12.07.18,0,.07-.02.14-.06.2-.04.06-.1.1-.18.1l-3.88.17.15,3.47,1.86-.08c.08,0,.14.02.19.07s.07.12.07.2c0,.06-.01.12-.05.18-.04.06-.1.09-.19.09l-1.86.08.15,3.48,3.88-.17c.08,0,.14.02.19.08s.07.12.07.2c0,.06-.01.12-.05.19-.04.06-.1.09-.18.1l-4.2.18Z"/>
        <path class="cls-1" d="m99.32,8.81c-.5-.02-.93-.12-1.27-.29-.34-.17-.6-.35-.77-.56-.17-.21-.25-.37-.25-.49,0-.05.02-.1.05-.15.03-.05.07-.09.11-.12.04-.03.08-.04.12-.04.07,0,.14.06.21.16.07.1.17.22.3.36.13.14.31.26.54.37s.54.17.92.19c.4.02.74-.03,1.03-.15s.51-.31.67-.56.25-.58.26-.96c.02-.41-.04-.74-.17-.99-.13-.25-.31-.46-.54-.63-.22-.16-.47-.3-.75-.41-.27-.11-.55-.22-.82-.34-.27-.12-.53-.26-.75-.42-.23-.16-.41-.38-.54-.65s-.19-.61-.17-1.02c.02-.42.11-.77.28-1.03.17-.26.38-.47.63-.61.25-.14.51-.24.79-.28.28-.05.55-.06.81-.05.24.01.46.04.69.09.22.05.43.11.61.18.19.07.33.14.44.23.11.08.16.17.15.26,0,.05-.02.1-.04.15-.03.05-.06.09-.1.13-.04.04-.09.05-.14.05-.06,0-.16-.04-.28-.13s-.29-.16-.51-.25c-.22-.09-.5-.14-.85-.15-.28-.01-.57.02-.85.09-.28.07-.52.21-.71.42-.19.2-.29.5-.31.9-.02.34.04.61.18.82.14.21.32.39.55.52.23.14.48.26.75.36.27.1.54.22.82.35.28.13.53.29.75.48.22.19.4.44.53.75.13.31.19.69.16,1.17-.03.56-.15,1.01-.38,1.35-.23.34-.52.59-.89.74-.37.15-.78.21-1.26.19Z"/>
        <path class="cls-1" d="m104.79,9.17c-.08,0-.14-.04-.2-.09-.05-.05-.08-.11-.07-.19l.86-7.76-2.03-.22c-.08,0-.14-.04-.18-.11-.04-.06-.06-.13-.05-.2s.04-.13.09-.19c.05-.05.12-.08.2-.07l4.63.51c.09,0,.15.04.18.1.04.06.05.12.04.19,0,.08-.04.14-.08.2-.05.05-.12.08-.21.07l-2.02-.22-.86,7.76c0,.08-.04.14-.11.17s-.13.05-.21.04Z"/>
        <path class="cls-1" d="m110.6,10.08c-.44-.08-.83-.23-1.15-.46s-.56-.53-.7-.92-.16-.88-.05-1.47l1.06-5.9c.02-.08.06-.14.12-.16.06-.02.13-.03.21-.02.07.01.13.04.19.09s.08.11.06.2l-1.06,5.9c-.11.63-.04,1.13.21,1.49.25.36.66.59,1.22.69.55.1,1.01.02,1.38-.23.37-.25.61-.69.72-1.33l1.06-5.9c.02-.08.06-.14.12-.16s.13-.03.21-.02c.07.01.13.04.19.09s.08.11.06.2l-1.06,5.9c-.11.59-.3,1.04-.57,1.35-.27.31-.6.52-.99.62-.39.1-.79.11-1.23.03Z"/>
        <path class="cls-1" d="m114.89,10.87c-.08-.02-.13-.06-.17-.12s-.05-.12-.03-.18l2.04-7.9c.02-.06.05-.11.12-.14.06-.03.13-.04.21-.02l2.02.52c.43.11.81.29,1.12.54.31.25.52.57.63.97.11.4.09.89-.06,1.47l-.92,3.58c-.15.58-.37,1.02-.66,1.31-.29.29-.63.48-1.02.55-.39.07-.8.05-1.24-.06l-2.02-.52Zm.45-.47l1.73.45c.54.14,1,.1,1.38-.12.38-.22.65-.65.81-1.27l.92-3.58c.16-.62.13-1.13-.1-1.51-.23-.38-.61-.64-1.15-.78l-1.72-.45-1.87,7.26Z"/>
        <path class="cls-1" d="m121.13,12.59c-.08-.02-.13-.06-.18-.12-.04-.06-.05-.13-.03-.2l2.44-7.77c.03-.08.07-.13.14-.15.07-.02.14-.01.21.01.07.02.13.06.18.11.05.05.06.12.04.2l-2.44,7.77c-.02.08-.07.12-.15.15-.07.02-.14.02-.21,0Z"/>
        <path class="cls-1" d="m125.24,14.07c-.42-.16-.77-.37-1.05-.65s-.45-.62-.52-1.03c-.07-.41,0-.89.2-1.45l1.31-3.53c.21-.56.47-.97.79-1.24.32-.26.68-.41,1.07-.44.39-.03.8.03,1.21.18.42.16.77.37,1.05.65.28.28.46.62.53,1.03.07.41,0,.89-.21,1.45l-1.31,3.53c-.21.56-.47.97-.79,1.24-.32.26-.68.41-1.08.44s-.8-.03-1.21-.19Zm.19-.54c.52.19.99.2,1.4.02.41-.18.72-.57.95-1.18l1.31-3.53c.22-.6.24-1.11.05-1.51-.19-.4-.55-.7-1.07-.89-.52-.19-.99-.2-1.39-.02s-.72.58-.94,1.18l-1.31,3.53c-.22.6-.24,1.11-.06,1.51.19.4.54.7,1.07.89Z"/>
        <path class="cls-1" d="m132.11,14.04c-.06-.03-.1-.07-.12-.14-.02-.07-.02-.13.01-.2.03-.07.08-.12.15-.15.06-.03.12-.03.18,0l2.77,1.32c.06.03.11.08.13.15.02.07.02.14-.01.21-.03.06-.08.11-.15.13-.07.02-.13.02-.2,0l-2.77-1.32Z"/>
        <path class="cls-1" d="m137.52,19.63c-.07-.04-.12-.09-.14-.16-.03-.07-.02-.13.02-.2l4.18-6.93c.06-.09.12-.14.19-.15.07,0,.14.02.21.06.06.04.1.09.13.17s.04.16.04.25,0,.17,0,.25l-.33,4.73,4.05-2.49c.07-.04.15-.08.22-.12.08-.04.16-.06.24-.08s.15,0,.2.03c.07.04.12.1.15.16.03.06.01.14-.05.23l-4.18,6.93c-.04.07-.1.1-.17.11-.07,0-.14-.01-.21-.05-.06-.04-.11-.09-.14-.16-.03-.07-.03-.14.01-.21l3.63-6.02-3.87,2.35c-.08.05-.15.08-.21.09-.06,0-.11,0-.15-.03-.03-.02-.06-.06-.08-.11s-.03-.13-.02-.22l.29-4.53-3.64,6.04c-.04.07-.1.1-.17.11-.08,0-.14-.01-.21-.05Z"/>
        <path class="cls-1" d="m145.57,24.89c-.36-.26-.64-.56-.84-.91-.19-.34-.27-.72-.23-1.13.04-.41.23-.86.58-1.35l2.2-3.06c.35-.49.71-.81,1.09-.98.38-.17.76-.22,1.15-.14.39.07.76.24,1.12.5.36.26.64.56.84.91.2.35.28.72.24,1.14-.04.41-.23.86-.58,1.35l-2.2,3.06c-.35.49-.71.81-1.09.98-.38.17-.76.22-1.15.14-.39-.08-.76-.24-1.12-.5Zm.32-.47c.45.33.9.46,1.34.39.44-.07.85-.36,1.22-.89l2.2-3.06c.38-.52.53-1,.45-1.44-.08-.44-.34-.82-.8-1.15-.45-.33-.9-.45-1.34-.39-.44.07-.84.37-1.22.89l-2.2,3.06c-.38.52-.53,1-.45,1.44s.34.82.79,1.14Z"/>
        <path class="cls-1" d="m150.55,28.75c-.34-.29-.6-.61-.77-.97-.17-.36-.22-.74-.15-1.15.07-.41.29-.84.68-1.3l2.41-2.89c.38-.46.77-.76,1.16-.9.39-.14.77-.16,1.16-.06.38.1.74.29,1.08.58.34.29.6.61.77.97.17.36.22.74.15,1.15-.07.41-.29.84-.68,1.3l-2.41,2.89c-.38.46-.77.76-1.16.9-.39.14-.78.16-1.16.05s-.75-.3-1.08-.58Zm.35-.44c.43.36.87.52,1.31.48.44-.03.87-.3,1.29-.79l2.41-2.89c.41-.5.6-.96.55-1.41-.04-.44-.28-.84-.71-1.2-.43-.36-.86-.52-1.3-.48-.44.04-.87.3-1.28.8l-2.41,2.89c-.41.5-.6.96-.56,1.4.04.44.28.84.71,1.2Z"/>
        <path class="cls-1" d="m153.87,31.54c-.06-.06-.09-.12-.1-.19s0-.14.06-.19l5.65-5.84c.07-.07.13-.09.2-.08.07.02.13.05.19.11.05.05.08.11.09.19,0,.08,0,.16-.02.25-.02.09-.04.17-.07.24l-2.23,7.22,4.86-5.02c.05-.06.12-.08.19-.07.07.01.13.05.19.1.05.05.08.11.1.18.02.07,0,.14-.05.19l-5.66,5.85c-.05.06-.12.08-.2.07s-.14-.04-.19-.09c-.07-.07-.09-.16-.08-.28.02-.12.04-.23.07-.33l2.23-7.3-4.86,5.02c-.05.06-.12.08-.19.07-.08-.01-.14-.04-.19-.09Z"/>
        <path class="cls-1" d="m160.01,37.82c-.05-.05-.07-.12-.07-.19s.03-.13.08-.18l6.19-5.29c.06-.05.12-.07.19-.05.07.02.13.06.18.12.05.05.07.12.08.19s-.01.14-.07.19l-5.94,5.09,2.26,2.64c.05.05.06.11.04.18-.02.06-.06.12-.11.17-.05.05-.11.08-.18.09-.07.01-.12,0-.17-.06l-2.47-2.89Z"/>
        <path class="cls-1" d="m163.01,41.35s-.05-.08-.06-.14c-.01-.06-.01-.11,0-.15s.04-.09.08-.12c.02-.01.04-.02.06-.03l8.03-2.87c.08-.03.15-.03.21,0,.06.03.12.08.16.13.04.06.07.12.08.2s0,.14-.05.2l-5.04,6.88s-.03.04-.05.05c-.03.02-.08.03-.13.03s-.11-.02-.16-.04c-.05-.03-.09-.06-.12-.11-.03-.04-.05-.09-.06-.14,0-.05.01-.1.06-.15l1.16-1.59-2.04-2.72-1.84.67c-.06.02-.11.03-.17,0-.05-.02-.09-.06-.13-.11Zm2.67-.76l1.84,2.46,3.12-4.24-4.96,1.78Z"/>
        <path class="cls-1" d="m168.01,48.52c-.24-.37-.39-.75-.44-1.14-.05-.39.01-.77.2-1.14.19-.37.53-.72,1.04-1.04l3.17-2.04c.5-.32.96-.49,1.38-.51.41-.02.79.08,1.12.29.33.21.62.5.86.87.27.42.42.82.47,1.21.05.39,0,.75-.16,1.08-.15.33-.38.59-.7.8-.09.06-.17.08-.24.06-.07-.02-.13-.07-.17-.14-.04-.07-.06-.13-.06-.2,0-.07.04-.13.11-.18.26-.21.44-.44.54-.69.1-.24.13-.5.09-.78-.05-.27-.16-.56-.35-.85-.3-.47-.67-.75-1.1-.85-.43-.1-.92.03-1.46.38l-3.17,2.04c-.54.35-.86.74-.95,1.17s.01.88.32,1.35c.3.47.67.75,1.1.85.43.1.92-.02,1.46-.37l1.34-.86-.94-1.46c-.04-.07-.05-.13-.03-.2.02-.07.06-.12.12-.16s.12-.05.19-.05c.07,0,.13.04.17.11l1.13,1.76c.04.06.05.12.03.19s-.06.12-.12.15l-1.58,1.01c-.5.32-.96.49-1.38.51-.41.02-.79-.08-1.12-.29s-.62-.51-.87-.89Z"/>
        <path class="cls-1" d="m172.25,55.7c-.04-.08-.03-.16.02-.26.06-.1.11-.19.16-.27l2.29-3.37-.78-1.43-3.31,1.81c-.07.04-.14.04-.21,0-.07-.03-.12-.08-.15-.14-.04-.07-.05-.14-.04-.21,0-.07.05-.13.12-.17l7.14-3.91c.06-.03.11-.04.17-.02s.11.06.16.12l.98,1.78c.21.39.35.78.41,1.18.06.4,0,.78-.18,1.14s-.53.68-1.04.96c-.43.24-.83.36-1.19.36-.36,0-.68-.08-.96-.26s-.53-.41-.75-.7l-2.3,3.41s-.03.04-.05.06c-.02.01-.04.03-.05.03-.05.03-.1.04-.15.03s-.1-.02-.15-.05c-.05-.03-.09-.06-.12-.11Zm2.16-5.58l.81,1.48c.27.49.61.82,1.01,1,.41.18.88.11,1.44-.19.54-.3.85-.67.92-1.1s-.04-.9-.3-1.39l-.81-1.48-3.06,1.68Z"/>
        <path class="cls-1" d="m173.06,57.33c-.03-.06-.04-.13-.02-.2.02-.07.06-.12.13-.15l7.38-3.41c.07-.03.14-.03.2,0,.06.03.11.08.14.14l1.76,3.81c.04.08.04.15,0,.21s-.08.1-.14.13c-.06.03-.13.04-.21.03-.08-.01-.13-.06-.16-.13l-1.63-3.52-3.15,1.46.78,1.69c.03.07.03.14,0,.2-.03.06-.08.11-.16.14-.06.03-.12.03-.19.02s-.12-.06-.15-.14l-.78-1.69-3.16,1.46,1.63,3.52c.03.07.03.14,0,.2s-.09.11-.16.15c-.06.03-.12.03-.19.02-.07-.01-.12-.06-.16-.13l-1.76-3.81Z"/>
        <path class="cls-1" d="m175.42,62.62c-.03-.07-.03-.13,0-.2s.07-.11.14-.14l7.59-2.91c.07-.03.14-.02.2.01.06.04.1.09.13.15l1.5,3.92c.03.08.03.15-.02.21-.04.06-.09.1-.15.12-.07.03-.14.03-.21.01-.07-.02-.12-.06-.15-.14l-1.39-3.63-3.24,1.24.67,1.74c.03.07.02.14-.01.2s-.09.1-.16.13c-.06.02-.12.03-.19,0s-.11-.07-.14-.15l-.67-1.74-3.25,1.24,1.39,3.63c.03.07.02.14-.02.2-.04.06-.1.11-.17.13-.06.02-.12.03-.19.01-.07-.02-.12-.06-.15-.15l-1.5-3.92Z"/>
        <path class="cls-1" d="m178.47,71.81c-.14-.48-.18-.92-.13-1.29.05-.38.15-.68.29-.91.14-.23.27-.36.39-.39.05-.01.1-.01.16,0,.06.02.11.04.15.07s.07.06.08.1c.02.07,0,.15-.08.25-.08.1-.16.23-.25.39-.09.17-.15.37-.19.63s0,.57.11.94c.11.39.26.7.47.93s.45.38.75.45.62.05,1-.05c.39-.11.69-.27.89-.48.2-.21.34-.44.43-.71s.14-.54.16-.84.04-.59.06-.89c.02-.3.08-.58.16-.85s.23-.51.44-.72c.21-.21.52-.37.92-.48.41-.11.77-.13,1.07-.06.3.07.56.21.77.4.21.19.39.42.52.66.13.25.23.5.3.75.06.23.11.45.13.68s.03.44.03.64c0,.2-.03.36-.08.49-.05.13-.11.2-.19.23-.05.01-.1.01-.15,0-.06,0-.11-.03-.16-.05-.05-.03-.08-.07-.09-.12-.02-.06,0-.16.03-.3.04-.14.06-.33.08-.56.01-.23-.03-.52-.12-.86-.08-.27-.19-.53-.35-.78-.16-.25-.37-.43-.62-.54s-.57-.12-.95-.02c-.33.09-.57.23-.73.43-.16.19-.27.42-.32.68s-.09.54-.11.83c-.01.29-.04.59-.08.89-.04.3-.11.59-.22.87-.11.27-.29.52-.54.74-.25.22-.6.39-1.05.52-.54.15-1.01.17-1.4.07-.4-.11-.72-.31-.98-.61-.25-.3-.45-.68-.57-1.13Z"/>
        <path class="cls-1" d="m179.85,77.13c-.02-.08,0-.15.02-.22.03-.07.08-.11.16-.12l7.64-1.62-.42-2c-.02-.08,0-.14.05-.2.05-.06.11-.09.18-.11s.14,0,.21.03c.07.03.11.09.13.17l.97,4.56c.02.08,0,.15-.04.21s-.1.09-.17.1c-.08.02-.15.01-.21-.01-.07-.03-.11-.09-.13-.18l-.42-1.99-7.64,1.62c-.08.02-.14,0-.2-.05s-.09-.11-.11-.19Z"/>
        <path class="cls-1" d="m180.81,82.93c-.06-.44-.04-.86.08-1.24.11-.38.33-.7.66-.96.33-.26.78-.43,1.38-.51l5.93-.84c.09-.01.15,0,.19.06.04.05.07.12.08.2,0,.07,0,.14-.02.21s-.08.11-.17.12l-5.93.84c-.64.09-1.09.31-1.35.67-.26.35-.36.81-.28,1.37.08.55.29.97.65,1.24.35.27.85.36,1.49.27l5.93-.84c.09-.01.15,0,.19.06.04.05.07.12.08.2,0,.07,0,.14-.02.21s-.08.11-.17.12l-5.93.84c-.59.08-1.08.05-1.46-.11-.38-.16-.68-.41-.9-.74-.21-.33-.35-.72-.42-1.16Z"/>
        <path class="cls-1" d="m181.41,87.24c0-.08.01-.15.06-.2.04-.05.1-.08.16-.09l8.14-.55c.06,0,.12.02.17.07.05.05.08.11.08.19l.14,2.08c.03.45-.02.86-.17,1.23-.14.37-.38.67-.73.91-.34.23-.81.37-1.41.41l-3.69.25c-.6.04-1.08-.03-1.45-.22-.37-.18-.65-.45-.84-.8-.19-.35-.3-.75-.33-1.2l-.14-2.08Zm.59.28l.12,1.78c.04.56.22.98.55,1.28.33.29.82.42,1.46.37l3.68-.25c.64-.04,1.11-.23,1.4-.57.29-.33.42-.78.38-1.34l-.12-1.78-7.48.5Z"/>
        <path class="cls-1" d="m181.73,93.73c0-.08.02-.15.06-.21s.1-.09.18-.09l8.14-.14c.09,0,.15.03.18.09.04.06.05.13.06.21,0,.07-.02.14-.05.2s-.09.1-.18.1l-8.14.14c-.08,0-.14-.03-.18-.09-.04-.06-.07-.13-.07-.2Z"/>
        <path class="cls-1" d="m181.63,98.08c.01-.45.11-.85.29-1.2s.45-.63.81-.82c.36-.2.85-.29,1.44-.27l3.76.12c.6.02,1.07.14,1.42.36.35.22.6.51.76.88s.22.76.21,1.21c-.01.45-.11.85-.29,1.21-.18.36-.45.63-.81.83-.36.2-.85.28-1.44.27l-3.76-.12c-.6-.02-1.07-.14-1.42-.36-.35-.22-.6-.51-.76-.88-.15-.37-.22-.77-.21-1.21Zm.57,0c-.02.56.12,1,.42,1.33.3.33.77.5,1.42.52l3.76.12c.64.02,1.13-.12,1.45-.43.32-.31.49-.74.51-1.3s-.12-1-.42-1.32c-.3-.32-.77-.5-1.42-.52l-3.76-.12c-.64-.02-1.13.12-1.45.42-.32.3-.49.74-.51,1.29Z"/>
        <path class="cls-1" d="m183.84,104.59c0-.06.04-.11.1-.15s.12-.06.19-.05c.08,0,.14.04.18.09s.06.11.06.17l-.37,3.05c0,.07-.04.13-.1.17-.06.04-.12.06-.2.05-.07,0-.13-.04-.17-.1-.04-.06-.06-.12-.05-.19l.37-3.05Z"/>
        <path class="cls-1" d="m180.25,111.49c.02-.08.05-.14.11-.19s.12-.06.2-.05l7.9,1.76c.11.02.17.07.2.14.03.07.03.14.01.21-.02.07-.05.13-.12.17-.06.05-.14.09-.22.12-.08.03-.16.06-.24.07l-4.59,1.19,3.65,3.05c.06.05.12.11.18.17.06.06.11.13.15.2.04.07.05.14.03.2-.02.08-.05.15-.1.19-.05.04-.13.06-.24.03l-7.9-1.76c-.08-.02-.13-.06-.16-.13-.03-.07-.04-.14-.02-.22.01-.07.05-.13.11-.18.06-.05.12-.07.2-.05l6.87,1.53-3.46-2.92c-.08-.06-.13-.11-.15-.17s-.03-.1-.02-.15c0-.04.04-.08.08-.11.04-.04.11-.07.21-.09l4.39-1.16-6.89-1.53c-.08-.02-.13-.06-.16-.13-.03-.07-.04-.14-.02-.21Z"/>
        <path class="cls-1" d="m177.82,120.78c.13-.43.33-.79.59-1.08.26-.29.6-.49,1-.58.4-.09.89-.05,1.46.12l3.6,1.11c.57.18,1,.42,1.28.72.28.3.45.65.5,1.04.05.39.01.8-.12,1.22-.13.43-.33.79-.6,1.09s-.6.49-1,.59c-.4.09-.89.05-1.46-.12l-3.6-1.11c-.57-.18-1-.42-1.28-.72-.28-.31-.45-.65-.5-1.05-.05-.39-.01-.8.12-1.22Zm.54.16c-.17.53-.15,1,.06,1.39.2.4.61.69,1.23.88l3.6,1.11c.62.19,1.12.18,1.51-.03.39-.21.67-.59.83-1.12.17-.53.15-1-.06-1.39-.2-.39-.61-.68-1.23-.87l-3.6-1.11c-.62-.19-1.12-.18-1.51.03-.39.21-.67.58-.83,1.11Z"/>
        <path class="cls-1" d="m175.73,126.75c.16-.42.39-.76.67-1.04.29-.27.63-.44,1.04-.5.41-.06.89.01,1.45.23l3.5,1.37c.56.22.96.49,1.22.81s.4.68.42,1.08c.02.39-.05.8-.21,1.21-.16.42-.39.76-.67,1.04-.29.28-.63.45-1.04.51-.41.06-.89-.01-1.45-.23l-3.5-1.37c-.56-.22-.96-.49-1.22-.81-.26-.33-.4-.69-.42-1.08-.02-.4.05-.8.21-1.21Zm.53.2c-.2.52-.22.98-.05,1.4.17.41.56.73,1.16.97l3.5,1.37c.6.24,1.1.26,1.51.08.41-.18.71-.54.91-1.06s.22-.98.04-1.39c-.17-.41-.56-.73-1.16-.96l-3.5-1.37c-.6-.24-1.1-.26-1.51-.08-.4.18-.71.53-.91,1.05Z"/>
        <path class="cls-1" d="m174.14,130.77c.03-.07.08-.12.15-.16.06-.03.13-.03.2,0l7.33,3.52c.08.04.13.1.14.16,0,.07,0,.14-.04.21-.03.06-.08.11-.15.14-.07.03-.15.05-.24.06-.09,0-.17.01-.25.01l-7.55.16,6.29,3.03c.07.03.11.09.12.16.01.07,0,.14-.04.21-.03.06-.08.12-.14.16-.06.04-.13.04-.2,0l-7.34-3.53c-.07-.03-.11-.09-.12-.16-.01-.08,0-.15.03-.21.04-.08.12-.14.24-.16.12-.02.23-.03.34-.03l7.63-.18-6.29-3.03c-.07-.03-.11-.09-.12-.16-.01-.08,0-.15.03-.21Z"/>
        <path class="cls-1" d="m170.11,138.58c.04-.06.09-.1.15-.13.07-.02.13-.02.2.02l6.97,4.21c.07.04.1.1.11.17,0,.07-.01.14-.06.21-.04.06-.09.11-.15.14s-.13.03-.2-.01l-6.7-4.04-1.8,2.98c-.04.06-.09.09-.16.09-.07,0-.13-.02-.19-.06-.06-.04-.11-.09-.14-.15-.03-.06-.03-.12,0-.18l1.96-3.25Z"/>
        <path class="cls-1" d="m167.69,142.55s.07-.07.11-.1c.05-.03.1-.05.14-.05.05,0,.09,0,.14.04.02.01.04.03.05.05l5.25,6.72c.05.06.07.13.06.2,0,.07-.04.13-.08.19-.04.06-.09.1-.16.14-.07.03-.14.04-.21.02l-8.11-2.62s-.05-.02-.06-.03c-.03-.02-.06-.06-.07-.11-.02-.05-.02-.11,0-.16.01-.06.03-.11.06-.15.03-.04.07-.08.12-.1.05-.02.1-.02.16,0l1.87.6,1.94-2.79-1.22-1.54s-.06-.1-.06-.16c0-.05.03-.11.06-.16Zm1.56,2.3l-1.75,2.52,5,1.63-3.25-4.15Z"/>
        <path class="cls-1" d="m162.46,149.54c.28-.34.59-.6.95-.78.35-.17.73-.23,1.14-.17.41.06.85.28,1.31.66l2.93,2.37c.46.38.77.76.92,1.14.15.39.17.77.08,1.15-.1.38-.28.74-.56,1.09-.31.39-.65.66-1,.83-.36.17-.71.23-1.07.19-.36-.04-.68-.18-.98-.42-.09-.07-.13-.14-.13-.21,0-.07.02-.14.08-.21.05-.06.11-.1.17-.12.07-.02.13,0,.21.04.28.18.56.28.82.3.26.02.52-.03.77-.16.25-.13.48-.33.7-.6.35-.43.5-.87.46-1.31-.04-.44-.32-.86-.82-1.27l-2.93-2.37c-.5-.41-.97-.58-1.41-.53s-.83.29-1.19.73c-.35.43-.51.87-.46,1.32.04.44.31.87.82,1.27l1.24,1,1.09-1.35c.05-.06.11-.09.18-.09.07,0,.13.02.19.07.05.04.09.1.11.17.02.07,0,.13-.05.19l-1.31,1.62c-.04.06-.1.08-.17.08-.07,0-.13-.02-.18-.06l-1.46-1.18c-.46-.38-.77-.76-.92-1.14-.15-.39-.17-.77-.07-1.16s.29-.75.57-1.1Z"/>
        <path class="cls-1" d="m156.98,155.83c.06-.06.14-.08.26-.06s.21.05.3.06l3.91,1.11,1.11-1.19-2.76-2.57c-.06-.05-.08-.12-.07-.19.01-.08.04-.14.09-.19.05-.06.12-.09.19-.11.07-.01.14,0,.19.06l5.96,5.55s.07.09.07.16c0,.06-.02.12-.07.19l-1.38,1.49c-.3.32-.63.57-.99.76-.36.18-.74.24-1.14.18-.4-.06-.81-.29-1.24-.69-.36-.34-.6-.68-.72-1.01-.12-.34-.13-.67-.06-.99.08-.32.22-.63.42-.93l-3.96-1.11s-.05-.01-.07-.03c-.02-.01-.04-.02-.05-.04-.04-.04-.07-.08-.08-.14,0-.05-.01-.11,0-.16,0-.06.03-.1.07-.14Zm5.98.29l-1.15,1.24c-.38.41-.59.83-.63,1.28-.04.44.17.88.63,1.3.46.42.9.6,1.33.52.43-.07.84-.32,1.22-.72l1.15-1.24-2.56-2.38Z"/>
        <path class="cls-1" d="m155.71,157.09c.05-.05.11-.08.18-.08.07,0,.13.02.19.08l5.57,5.93c.05.06.08.12.07.19-.01.07-.04.13-.09.18l-3.06,2.88c-.06.06-.13.08-.2.06s-.12-.05-.17-.09c-.05-.05-.08-.12-.09-.19s.01-.14.07-.19l2.83-2.66-2.38-2.53-1.36,1.28c-.06.05-.12.08-.19.06-.07-.01-.13-.04-.18-.1-.04-.05-.07-.1-.08-.17,0-.07.02-.13.08-.19l1.36-1.28-2.38-2.54-2.83,2.66c-.06.05-.12.07-.19.06-.07-.01-.13-.05-.19-.11-.04-.05-.07-.1-.08-.17s.01-.13.08-.19l3.06-2.88Z"/>
        <path class="cls-1" d="m151.42,161.01c.05-.04.12-.07.19-.07.07,0,.13.03.18.09l5.16,6.28c.05.06.07.12.05.19-.02.07-.05.13-.11.17l-3.25,2.67c-.07.06-.13.07-.2.05-.07-.02-.12-.06-.16-.1-.04-.05-.07-.12-.08-.2,0-.08.02-.14.08-.19l3-2.46-2.2-2.68-1.44,1.18c-.06.05-.13.07-.19.05s-.13-.05-.18-.11c-.04-.05-.06-.11-.07-.17,0-.07.03-.13.09-.18l1.44-1.18-2.21-2.69-3,2.46c-.06.05-.13.07-.2.05s-.13-.06-.18-.12c-.04-.05-.06-.11-.07-.18,0-.07.02-.13.09-.19l3.25-2.67Z"/>
        <path class="cls-1" d="m143.65,166.83c.42-.28.81-.46,1.19-.53.37-.07.69-.08.95-.01.26.06.43.15.49.24.03.04.04.09.05.15,0,.06,0,.12-.01.17-.02.05-.04.08-.07.11-.06.04-.15.04-.26,0s-.27-.08-.45-.11-.4-.03-.65.02c-.25.05-.54.18-.85.4-.33.23-.58.47-.73.74-.16.27-.22.55-.19.85s.15.61.36.93c.23.34.47.57.73.69.26.12.53.18.81.18s.56-.04.85-.12.57-.15.86-.22c.29-.07.57-.11.86-.12.28,0,.55.06.82.19.27.13.52.37.75.72.24.35.37.68.39.99.03.31-.02.6-.14.86-.12.26-.27.5-.47.7s-.4.38-.62.52c-.2.13-.4.24-.6.34-.21.09-.41.17-.6.23-.19.06-.35.08-.49.08-.13,0-.23-.04-.28-.11-.03-.04-.04-.09-.05-.14,0-.06,0-.11,0-.17.01-.05.04-.1.08-.13.05-.04.15-.06.3-.07.15,0,.33-.04.56-.11s.48-.19.78-.39c.23-.16.44-.35.63-.58.18-.23.29-.48.32-.76s-.06-.58-.28-.9c-.19-.28-.4-.46-.64-.55-.24-.09-.49-.12-.75-.09-.27.03-.54.08-.82.16-.28.08-.57.15-.87.21s-.6.08-.89.06c-.29-.02-.58-.11-.87-.28s-.56-.44-.83-.84c-.31-.46-.48-.9-.51-1.31-.03-.41.06-.78.27-1.12.2-.34.5-.64.89-.9Z"/>
        <path class="cls-1" d="m139.06,169.82c.07-.04.14-.06.21-.05.07,0,.13.04.17.11l3.97,6.73,1.76-1.04c.07-.04.14-.05.21-.02.07.03.12.07.16.13s.05.13.04.2-.05.13-.12.17l-4.02,2.37c-.07.04-.14.05-.21.03-.07-.03-.12-.07-.15-.13-.04-.07-.06-.14-.05-.21s.05-.13.13-.18l1.75-1.03-3.96-6.73c-.04-.07-.05-.14-.02-.2.03-.07.08-.12.14-.16Z"/>
        <path class="cls-1" d="m133.86,172.57c.4-.2.8-.31,1.2-.32.4-.01.77.09,1.12.32.35.23.65.61.92,1.14l2.68,5.36c.04.08.04.15,0,.2-.04.06-.09.1-.16.14-.06.03-.13.05-.2.04s-.13-.04-.17-.12l-2.68-5.36c-.29-.58-.64-.93-1.06-1.07-.42-.14-.88-.08-1.39.18-.5.25-.82.58-.97,1.01-.15.42-.07.92.21,1.5l2.68,5.36c.04.08.04.15,0,.2-.04.06-.09.1-.16.14-.06.03-.13.05-.2.04s-.13-.04-.17-.12l-2.68-5.36c-.27-.53-.39-1.01-.36-1.42.03-.42.17-.78.42-1.09.25-.31.57-.56.96-.76Z"/>
        <path class="cls-1" d="m129.96,174.5c.07-.03.14-.03.21,0,.07.02.11.07.13.12l3.1,7.54c.02.06.02.12,0,.18-.03.06-.08.11-.15.14l-1.93.79c-.42.17-.82.25-1.22.23-.4-.02-.76-.15-1.09-.4-.33-.25-.61-.65-.83-1.21l-1.4-3.42c-.23-.55-.31-1.03-.25-1.44.06-.41.22-.76.49-1.05.27-.29.62-.52,1.03-.69l1.93-.79Zm-.08.65l-1.65.68c-.52.21-.86.52-1.04.93-.17.41-.14.91.11,1.51l1.4,3.42c.25.6.57.98.98,1.15s.87.15,1.39-.07l1.65-.68-2.85-6.93Z"/>
        <path class="cls-1" d="m123.95,176.85c.07-.03.15-.03.22,0,.07.02.12.07.14.14l2.7,7.68c.03.08.02.15-.02.2-.04.05-.1.09-.18.12-.07.02-.14.03-.21.02-.07-.01-.12-.06-.15-.14l-2.71-7.68c-.03-.07-.02-.14.03-.2.04-.06.1-.1.17-.13Z"/>
        <path class="cls-1" d="m119.76,178.13c.43-.13.84-.16,1.23-.11.39.06.74.23,1.04.51.3.28.54.71.71,1.29l1.07,3.61c.17.57.21,1.06.11,1.46-.1.4-.3.73-.59.99-.3.26-.66.45-1.08.58-.43.13-.84.16-1.24.11s-.74-.23-1.04-.51c-.3-.28-.54-.71-.71-1.29l-1.07-3.61c-.17-.57-.21-1.06-.11-1.46.1-.4.3-.73.6-1,.3-.26.66-.45,1.08-.58Zm.17.54c-.54.16-.91.43-1.13.82-.22.39-.23.89-.05,1.51l1.07,3.61c.18.62.47,1.03.86,1.24s.86.23,1.39.07c.54-.16.91-.43,1.12-.82.21-.39.23-.89.05-1.51l-1.07-3.61c-.18-.62-.47-1.03-.86-1.24-.39-.21-.85-.23-1.39-.08Z"/>
        <path class="cls-1" d="m114.29,182.28c.06-.01.12,0,.18.04.06.04.09.1.1.17.02.08,0,.15-.03.2-.04.06-.08.1-.15.11l-3.01.6c-.07.01-.13,0-.19-.04-.06-.04-.1-.1-.11-.18-.01-.07,0-.13.04-.19.04-.06.09-.1.16-.11l3.01-.6Z"/>
        <path class="cls-1" d="m106.58,181.04c.08,0,.15,0,.21.04.06.04.1.1.11.17l.81,8.05c.01.11-.01.19-.07.23s-.12.07-.2.08c-.07,0-.14-.01-.2-.06-.06-.04-.12-.1-.18-.17s-.11-.14-.15-.2l-2.57-3.99-1.75,4.42c-.03.07-.07.15-.11.23-.04.08-.09.15-.15.2-.06.06-.12.09-.18.1-.09,0-.16,0-.22-.04s-.09-.11-.1-.21l-.81-8.05c0-.08.02-.14.07-.19.05-.05.12-.08.2-.09.07,0,.14,0,.21.04.07.04.1.09.11.17l.7,7,1.69-4.2c.03-.09.07-.15.11-.19.04-.04.09-.06.14-.07.04,0,.08,0,.13.04.05.03.1.09.15.17l2.48,3.81-.71-7.02c0-.08.02-.14.08-.19.06-.05.12-.08.19-.08Z"/>
        <path class="cls-1" d="m97.01,181.65c.45,0,.85.07,1.21.22s.65.41.87.77c.22.35.33.83.34,1.43l.08,3.76c.01.6-.08,1.08-.28,1.44s-.48.63-.83.8c-.35.17-.75.26-1.19.27-.45,0-.86-.06-1.22-.22s-.66-.41-.87-.77-.33-.83-.34-1.43l-.08-3.76c-.01-.6.08-1.08.28-1.44s.48-.63.84-.8c.36-.17.76-.26,1.2-.27Zm.02.57c-.56.01-.99.18-1.31.49-.31.32-.46.8-.45,1.44l.08,3.76c.01.64.18,1.12.51,1.42s.77.45,1.33.44.99-.18,1.3-.49c.31-.32.46-.8.44-1.44l-.08-3.76c-.01-.65-.18-1.12-.5-1.42-.32-.3-.76-.45-1.32-.44Z"/>
        <path class="cls-1" d="m90.67,181.56c.45.02.85.13,1.2.31.35.18.62.46.81.83.19.37.27.85.24,1.45l-.19,3.76c-.03.6-.16,1.07-.39,1.42s-.52.59-.89.74c-.37.15-.77.21-1.21.19-.45-.02-.85-.13-1.2-.31-.35-.18-.62-.46-.81-.83s-.27-.85-.24-1.45l.19-3.76c.03-.6.16-1.07.39-1.42.23-.35.53-.59.89-.74.37-.15.78-.21,1.21-.19Zm-.02.57c-.56-.03-1,.1-1.34.4-.33.29-.52.76-.55,1.41l-.19,3.76c-.03.64.1,1.13.4,1.46.3.33.73.5,1.29.53.56.03,1-.1,1.33-.4.33-.29.51-.76.55-1.41l.19-3.76c.03-.64-.1-1.13-.4-1.46-.3-.33-.73-.5-1.28-.53Z"/>
        <path class="cls-1" d="m86.38,181.33c.08,0,.14.04.2.09.05.05.07.11.06.19l-1.01,8.07c-.01.09-.05.15-.11.18-.06.03-.13.04-.21.03-.07,0-.13-.04-.18-.1-.05-.06-.1-.13-.13-.21-.04-.08-.07-.16-.09-.23l-2.56-7.11-.87,6.93c0,.08-.05.13-.11.16s-.13.04-.21.03c-.07,0-.13-.04-.19-.08s-.08-.11-.07-.19l1.01-8.08c0-.08.05-.13.12-.17.07-.04.14-.05.21-.04.09.01.17.07.23.18s.1.21.14.31l2.6,7.18.87-6.93c0-.08.05-.13.12-.17.07-.04.14-.05.21-.04Z"/>
        <path class="cls-1" d="m77.68,179.98c.07.02.13.05.17.1.04.05.06.12.04.2l-1.78,7.95c-.02.08-.06.13-.12.15-.07.03-.14.03-.21.01-.07-.02-.13-.05-.18-.1-.05-.05-.07-.12-.05-.19l1.71-7.64-3.4-.76c-.07-.02-.11-.06-.14-.12-.02-.06-.02-.13,0-.2.02-.07.05-.13.09-.18.05-.05.11-.07.17-.05l3.71.83Z"/>
        <path class="cls-1" d="m73.16,178.95s.09.04.13.08c.04.04.07.08.09.12.02.04.02.09,0,.14,0,.02-.02.04-.03.06l-4.71,7.11c-.04.07-.1.11-.17.12s-.14,0-.21-.01c-.07-.02-.13-.06-.18-.11-.05-.05-.08-.12-.08-.19l-.09-8.52s0-.05,0-.07c.01-.04.04-.07.09-.1.05-.03.1-.05.15-.06s.11,0,.16.01c.05.02.1.04.13.08.03.04.05.09.05.16l.03,1.96,3.26.96,1.07-1.64c.03-.06.08-.09.13-.1.05-.01.11-.01.17,0Zm-1.68,2.21l-2.94-.87.04,5.26,2.91-4.4Z"/>
        <path class="cls-1" d="m64.87,176.21c.41.15.76.37,1.04.65.28.28.45.62.52,1.03.07.41,0,.89-.21,1.45l-1.32,3.53c-.21.56-.47.97-.79,1.23-.32.26-.68.41-1.07.44-.39.03-.8-.03-1.21-.19-.46-.17-.83-.4-1.1-.69-.27-.29-.44-.6-.52-.96-.07-.35-.04-.7.09-1.06.04-.1.09-.17.16-.19.07-.02.14-.02.22,0,.07.03.13.07.17.13.04.06.05.13.02.21-.08.32-.09.61-.02.87.06.26.19.48.4.68.2.19.46.35.79.47.52.2.99.2,1.39.02.4-.18.72-.57.94-1.18l1.32-3.53c.23-.6.25-1.11.06-1.51-.19-.4-.54-.7-1.06-.9-.52-.2-.99-.2-1.4-.02s-.72.57-.95,1.18l-.56,1.49,1.62.61c.07.03.12.07.14.14s.02.13,0,.2c-.02.07-.07.12-.13.15-.06.04-.13.04-.2.01l-1.96-.73c-.07-.02-.11-.07-.13-.13-.02-.06-.02-.13,0-.19l.66-1.76c.21-.56.47-.97.79-1.23.32-.26.68-.41,1.08-.44.4-.03.8.04,1.22.19Z"/>
        <path class="cls-1" d="m57.15,172.98c.08.04.12.11.14.22.01.11.02.22.03.31l.18,4.06,1.48.68,1.57-3.44c.03-.07.09-.11.16-.13.08-.01.15,0,.21.02.07.03.12.08.16.14.04.06.04.13,0,.2l-3.38,7.41c-.03.06-.07.1-.13.12-.06.02-.12.02-.2,0l-1.85-.84c-.4-.18-.74-.42-1.03-.7s-.46-.62-.53-1.02c-.07-.4.02-.86.26-1.39.21-.45.45-.78.74-1,.29-.22.59-.34.92-.37s.67,0,1.02.11l-.2-4.11s0-.05,0-.08c0-.02.01-.04.02-.06.02-.05.06-.09.1-.11.05-.03.1-.04.15-.05.06,0,.11,0,.16.02Zm1.61,5.77l-1.53-.7c-.51-.23-.98-.3-1.41-.2-.43.1-.78.44-1.04,1.01-.26.57-.28,1.04-.08,1.43s.57.7,1.07.93l1.54.7,1.45-3.18Z"/>
        <path class="cls-1" d="m55.56,172.18c.06.03.11.08.13.15.03.06.02.13-.01.2l-3.87,7.15c-.04.07-.09.11-.16.12s-.13,0-.2-.03l-3.69-2c-.08-.04-.12-.1-.12-.17,0-.07,0-.13.04-.19.03-.06.08-.11.15-.15.07-.03.14-.03.21,0l3.41,1.85,1.65-3.05-1.64-.89c-.07-.04-.11-.09-.12-.16s0-.14.04-.21c.03-.06.08-.1.14-.13.06-.03.13-.02.21.02l1.64.89,1.66-3.06-3.41-1.85c-.07-.04-.11-.09-.12-.17,0-.07,0-.14.04-.21.03-.06.08-.1.14-.13.06-.03.13-.03.21.01l3.69,2Z"/>
        <path class="cls-1" d="m50.49,169.34c.06.04.1.09.12.16s.01.13-.03.2l-4.34,6.87c-.04.07-.1.1-.17.11-.07,0-.13,0-.19-.05l-3.55-2.24c-.07-.05-.11-.1-.11-.18,0-.07.01-.13.05-.19.04-.06.09-.1.16-.13s.14-.02.21.02l3.28,2.07,1.85-2.93-1.58-1c-.07-.04-.1-.1-.11-.17s0-.14.05-.2c.03-.05.08-.09.14-.12.06-.03.13-.02.2.03l1.58,1,1.86-2.94-3.28-2.07c-.07-.04-.1-.1-.11-.17,0-.07.01-.14.06-.21.03-.05.08-.09.15-.12.07-.03.13-.02.21.03l3.55,2.24Z"/>
        <path class="cls-1" d="m42.54,163.81c.4.31.69.63.88.96.19.33.29.63.31.9.02.27,0,.45-.08.54-.03.04-.07.07-.13.09s-.11.04-.16.04-.09-.01-.12-.03c-.06-.04-.08-.13-.08-.25s-.01-.28-.04-.47c-.02-.19-.1-.39-.23-.61-.13-.22-.34-.45-.65-.69-.32-.24-.63-.4-.93-.46-.3-.06-.59-.04-.87.08-.28.12-.53.33-.77.64-.25.32-.39.63-.43.91-.04.29,0,.56.08.82s.22.52.38.77c.16.25.32.5.48.75.16.25.29.51.38.77.09.27.12.55.08.84s-.19.61-.45.94c-.26.34-.53.57-.82.69s-.57.17-.86.14c-.29-.03-.56-.1-.81-.22-.25-.12-.48-.26-.69-.42-.19-.14-.36-.3-.51-.47-.15-.17-.29-.33-.4-.49-.11-.16-.19-.31-.23-.44-.04-.13-.03-.23.02-.3.03-.04.07-.07.12-.1.05-.03.1-.04.16-.05.06,0,.1,0,.15.04.05.04.1.13.16.26.05.14.15.3.27.49.13.19.33.4.61.61.22.17.47.31.75.41.27.1.55.12.82.07.27-.06.53-.24.77-.55.21-.27.31-.53.32-.78s-.04-.5-.15-.74-.25-.49-.41-.73c-.16-.24-.32-.49-.47-.76s-.27-.54-.34-.83c-.07-.29-.08-.59,0-.92.07-.33.24-.68.53-1.05.34-.44.7-.74,1.08-.89.38-.15.76-.19,1.15-.1.38.09.76.27,1.14.56Z"/>
        <path class="cls-1" d="m38.25,160.38c.06.05.1.11.11.19.02.07,0,.14-.05.2l-5.14,5.88,1.54,1.34c.06.05.09.12.08.19,0,.08-.03.14-.08.19-.05.05-.11.09-.18.1s-.14,0-.2-.06l-3.51-3.07c-.07-.06-.1-.12-.09-.19,0-.07.03-.13.08-.19.05-.06.11-.1.18-.12.07-.02.14,0,.21.07l1.53,1.34,5.14-5.88c.05-.06.11-.09.19-.08.07,0,.14.04.2.09Z"/>
        <path class="cls-1" d="m34,156.3c.32.32.54.66.68,1.04.14.37.16.76.05,1.16-.11.4-.37.81-.79,1.23l-4.24,4.24c-.06.06-.12.08-.19.07-.07-.02-.13-.05-.18-.11-.05-.05-.08-.11-.1-.18-.02-.07,0-.13.06-.2l4.24-4.24c.46-.46.68-.9.68-1.35s-.2-.86-.6-1.26c-.39-.4-.81-.6-1.26-.6-.45,0-.9.22-1.35.67l-4.24,4.24c-.06.06-.12.08-.19.07-.07-.02-.13-.05-.18-.11-.05-.05-.08-.11-.1-.18-.02-.07,0-.14.06-.2l4.24-4.24c.42-.42.84-.69,1.24-.79s.79-.08,1.16.06c.37.14.71.36,1.03.68Z"/>
        <path class="cls-1" d="m30.94,153.22c.05.06.08.12.07.19,0,.07-.03.12-.08.17l-6.18,5.32s-.11.06-.18.05c-.07,0-.13-.04-.18-.1l-1.36-1.58c-.29-.34-.49-.7-.61-1.08-.11-.38-.1-.77.04-1.16s.43-.78.88-1.17l2.8-2.41c.45-.39.88-.62,1.29-.7s.79-.03,1.15.14c.36.17.69.42.98.76l1.36,1.58Zm-.64.13l-1.16-1.35c-.36-.42-.77-.65-1.21-.69-.44-.04-.91.16-1.39.58l-2.8,2.41c-.49.42-.75.85-.78,1.29-.03.44.14.87.5,1.3l1.16,1.35,5.68-4.89Z"/>
        <path class="cls-1" d="m26.8,148.24c.05.06.07.13.08.2,0,.07-.03.13-.09.18l-6.43,4.99c-.07.05-.13.07-.2.04s-.12-.07-.17-.13c-.04-.06-.07-.12-.08-.19-.01-.07.02-.13.09-.19l6.43-5c.06-.05.13-.06.2-.04.07.02.13.06.17.12Z"/>
        <path class="cls-1" d="m24.27,144.7c.26.37.42.75.49,1.13.07.39.02.77-.16,1.15s-.51.74-1,1.08l-3.08,2.16c-.49.34-.94.53-1.35.57s-.79-.05-1.13-.25-.64-.48-.89-.84c-.26-.37-.42-.75-.49-1.14s-.02-.77.15-1.15.51-.74,1-1.08l3.08-2.16c.49-.34.94-.53,1.35-.57.41-.03.79.05,1.13.25.34.2.64.48.89.84Zm-.46.33c-.32-.46-.7-.73-1.14-.81-.44-.08-.92.06-1.45.43l-3.08,2.16c-.53.37-.83.77-.9,1.21-.07.44.05.89.37,1.35.32.46.7.73,1.13.81.44.08.92-.07,1.45-.43l3.08-2.16c.53-.37.83-.77.9-1.21.07-.44-.05-.88-.37-1.34Z"/>
        <path class="cls-1" d="m18.59,140.8c.03.05.04.12.02.18-.02.07-.06.12-.12.15-.07.04-.14.05-.2.04-.07-.02-.12-.05-.15-.11l-1.53-2.66c-.04-.06-.04-.13-.02-.2.02-.07.06-.12.13-.16.06-.04.13-.04.2-.02.07.02.12.06.16.12l1.53,2.66Z"/>
        <path class="cls-1" d="m17.32,133.11c.03.07.04.14.03.21-.01.07-.06.12-.13.16l-7.38,3.32c-.1.05-.18.05-.24.01-.06-.04-.11-.09-.14-.16-.03-.06-.03-.13,0-.21s.06-.15.1-.23c.05-.08.1-.15.15-.2l2.97-3.7-4.75-.26c-.08,0-.17-.02-.25-.03-.09-.01-.17-.04-.24-.07-.07-.04-.12-.08-.15-.14-.04-.08-.05-.15-.03-.22.01-.07.07-.12.17-.17l7.38-3.32c.07-.03.14-.03.2,0s.11.09.14.16c.03.06.04.13.02.21-.01.08-.06.13-.13.16l-6.41,2.89,4.52.27c.09,0,.17.01.22.04.05.03.09.06.11.11.02.04.02.08,0,.14s-.05.12-.11.19l-2.82,3.56,6.43-2.9c.07-.03.14-.03.21.01.07.04.11.09.14.16Z"/>
        <path class="cls-1" d="m13.7,124.21c.15.42.21.83.17,1.22-.04.39-.19.75-.45,1.06s-.68.57-1.25.78l-3.55,1.26c-.56.2-1.05.26-1.46.19s-.75-.26-1.02-.54-.49-.63-.64-1.04c-.15-.42-.21-.83-.17-1.23.03-.4.18-.75.45-1.07s.68-.58,1.25-.78l3.55-1.26c.56-.2,1.05-.26,1.46-.19.41.08.75.26,1.03.54.28.29.49.64.64,1.05Zm-.53.2c-.19-.53-.48-.89-.88-1.08-.4-.2-.9-.19-1.51.03l-3.55,1.26c-.61.22-1,.53-1.19.93-.19.4-.18.87,0,1.4.19.53.48.89.88,1.08.4.19.9.18,1.51-.04l3.55-1.26c.61-.22,1-.52,1.19-.93.19-.4.19-.86,0-1.39Z"/>
        <path class="cls-1" d="m11.8,118.19c.12.43.15.84.08,1.23-.06.39-.24.73-.53,1.03-.29.3-.72.52-1.3.68l-3.63,1c-.58.16-1.07.19-1.47.08s-.73-.31-.98-.61c-.25-.3-.44-.66-.56-1.09-.12-.43-.15-.84-.08-1.24.06-.39.24-.74.53-1.03.29-.3.72-.52,1.3-.68l3.63-1c.58-.16,1.07-.18,1.46-.08.4.11.73.31.98.62.25.31.44.67.56,1.09Zm-.54.16c-.15-.54-.41-.92-.8-1.14-.38-.23-.89-.25-1.51-.08l-3.63,1c-.62.17-1.04.45-1.26.84-.21.39-.25.85-.1,1.39s.41.92.8,1.14.89.25,1.51.07l3.63-1c.62-.17,1.04-.45,1.26-.84.22-.39.25-.85.1-1.39Z"/>
        <path class="cls-1" d="m10.67,114.02c.02.08,0,.15-.02.22-.03.07-.08.11-.16.12l-7.98,1.57c-.09.02-.16,0-.21-.05-.05-.05-.08-.12-.09-.19-.01-.07,0-.14.04-.21.04-.07.09-.13.15-.19.06-.06.13-.11.19-.16l5.95-4.66-6.85,1.35c-.08.02-.14,0-.19-.05-.05-.05-.08-.11-.1-.19-.01-.07,0-.14.02-.21s.08-.11.16-.13l7.99-1.57c.08-.02.14,0,.2.06.05.05.09.11.1.18.02.09-.01.18-.1.27s-.17.17-.25.23l-6,4.71,6.85-1.35c.08-.02.14,0,.2.06.05.05.09.11.1.18Z"/>
        <path class="cls-1" d="m9.22,105.34c0,.07,0,.14-.05.19-.04.06-.1.09-.17.1l-8.1.81c-.08,0-.14-.02-.18-.07s-.07-.12-.08-.2c0-.07,0-.14.04-.21.03-.07.09-.1.17-.11l7.79-.77-.34-3.46c0-.07.02-.13.07-.17.06-.04.12-.06.19-.07.07,0,.14,0,.2.03s.1.08.1.15l.38,3.78Z"/>
        <path class="cls-1" d="m8.78,100.72s0,.1-.03.15c-.02.05-.05.09-.08.13s-.08.05-.13.05c-.02,0-.05,0-.07,0L.22,98.8c-.08-.02-.14-.06-.17-.12-.03-.06-.05-.13-.05-.2,0-.07.01-.14.05-.21.03-.07.08-.11.15-.14l8.06-2.77s.05-.01.07-.01c.04,0,.08.02.13.05s.08.08.1.13.04.1.04.16c0,.06,0,.1-.04.15-.03.04-.07.08-.13.09l-1.86.64.12,3.4,1.89.5c.06.01.11.04.14.09.03.05.04.1.05.16Zm-2.63-.9l-.1-3.07-4.98,1.69,5.09,1.37Z"/>
        <path class="cls-1" d="m8.77,92c-.02.44-.11.84-.29,1.19-.18.35-.45.63-.81.82-.37.2-.85.28-1.44.26l-3.76-.13c-.6-.02-1.07-.14-1.42-.36-.35-.22-.6-.51-.75-.88-.15-.36-.22-.77-.21-1.21.02-.5.12-.92.3-1.26s.43-.61.74-.79c.31-.18.65-.27,1.03-.25.11,0,.19.03.23.09.05.06.07.13.06.21,0,.08-.02.14-.07.2-.04.05-.1.08-.19.09-.33.03-.61.11-.84.25s-.4.34-.52.59-.19.55-.2.9c-.02.56.12,1,.42,1.33.3.33.77.5,1.42.52l3.76.13c.64.02,1.13-.12,1.45-.42.32-.3.49-.73.51-1.29.02-.56-.12-1-.42-1.33-.3-.33-.77-.51-1.42-.53l-1.59-.06-.06,1.73c0,.08-.03.14-.09.18-.06.04-.12.06-.19.06-.07,0-.13-.03-.19-.07-.05-.04-.08-.11-.08-.19l.07-2.09c0-.07.03-.13.08-.17.05-.04.12-.06.19-.06l1.88.07c.6.02,1.07.14,1.42.36.35.22.6.52.75.88.15.37.22.78.2,1.22Z"/>
        <path class="cls-1" d="m9.38,83.68c0,.09-.07.15-.17.2-.1.05-.2.09-.28.13l-3.8,1.46-.17,1.62,3.76.4c.08,0,.13.05.17.11.04.07.05.14.04.21,0,.08-.04.14-.09.2s-.11.08-.19.07l-8.1-.85c-.06,0-.11-.03-.15-.08-.04-.05-.06-.11-.06-.19l.21-2.02c.05-.44.16-.84.33-1.2.18-.36.44-.64.8-.83.36-.19.82-.26,1.4-.2.49.05.89.18,1.18.38.3.2.51.45.64.76.13.3.2.64.22,1l3.84-1.49s.05-.02.07-.02c.02,0,.04,0,.06,0,.06,0,.1.03.14.06.04.04.07.08.1.13s.04.1.03.16Zm-4.96,3.36l.18-1.68c.06-.56-.03-1.02-.26-1.4s-.66-.6-1.29-.66c-.62-.07-1.08.06-1.38.38-.3.32-.48.76-.54,1.31l-.18,1.68,3.47.37Z"/>
        <path class="cls-1" d="m9.64,81.9c-.01.07-.04.13-.1.17-.05.05-.12.06-.19.05l-8.01-1.4c-.08-.01-.13-.05-.17-.11-.03-.06-.04-.13-.03-.2l.72-4.14c.02-.09.05-.14.12-.17.06-.03.13-.04.19-.03.07.01.13.04.19.1.05.05.07.12.06.2l-.67,3.82,3.42.6.32-1.84c.01-.08.05-.13.11-.17.06-.03.13-.04.21-.03.06.01.12.04.16.09.05.05.06.11.05.2l-.32,1.84,3.43.6.67-3.82c.01-.08.05-.13.12-.17.07-.03.14-.04.21-.03.06.01.12.04.17.09.05.05.07.12.05.2l-.72,4.14Z"/>
        <path class="cls-1" d="m10.71,76.21c-.02.07-.05.12-.11.17-.05.04-.12.06-.2.04l-7.9-1.94c-.08-.02-.13-.06-.16-.12-.03-.06-.03-.13-.02-.2l1-4.08c.02-.08.06-.14.13-.16.07-.02.13-.03.19-.01.07.02.13.05.18.11.05.06.07.12.05.2l-.92,3.77,3.37.83.44-1.81c.02-.08.06-.13.12-.16.06-.03.13-.03.21-.02.06.02.11.05.16.1s.06.12.04.2l-.44,1.81,3.38.83.92-3.77c.02-.08.06-.13.13-.16.07-.03.14-.03.22-.01.06.01.12.05.16.1s.06.12.04.2l-1,4.08Z"/>
        <path class="cls-1" d="m13.45,66.89c-.17.48-.38.85-.63,1.14-.26.28-.51.48-.76.58-.25.11-.43.14-.54.1-.04-.02-.09-.05-.13-.09-.04-.05-.07-.1-.09-.14-.02-.05-.02-.09,0-.13.02-.07.09-.12.21-.16.12-.04.26-.1.43-.18s.34-.22.51-.41c.17-.19.32-.47.45-.83.13-.38.18-.72.14-1.03-.03-.31-.15-.57-.35-.8-.2-.22-.48-.4-.85-.53-.39-.13-.72-.17-1-.12-.28.06-.53.17-.75.34-.22.17-.42.37-.61.6-.18.23-.37.46-.56.69-.19.23-.39.43-.62.6-.22.17-.48.29-.77.34-.29.05-.64.01-1.03-.13-.4-.14-.71-.33-.91-.56s-.34-.49-.41-.77c-.07-.28-.08-.56-.05-.84.03-.28.09-.54.18-.79.08-.22.17-.43.28-.63.11-.2.22-.38.34-.54.12-.16.23-.28.34-.36.11-.08.21-.1.29-.07.04.02.09.04.13.08.04.04.07.08.1.13.02.05.03.1,0,.15-.02.06-.09.14-.2.23-.11.09-.24.23-.38.42-.14.18-.27.44-.39.78-.09.27-.14.55-.15.84,0,.29.06.56.2.8s.4.43.77.55c.32.11.6.13.84.06.24-.07.46-.2.66-.38s.38-.39.56-.62.37-.46.57-.69c.21-.23.43-.42.68-.58.25-.16.54-.26.87-.3s.72.02,1.16.17c.53.18.92.43,1.19.74.27.31.42.67.46,1.06.04.39-.02.81-.17,1.26Z"/>
        <path class="cls-1" d="m15.34,61.74c-.03.07-.08.13-.14.17s-.13.04-.2.01l-7.2-3.02-.79,1.88c-.03.07-.08.12-.15.14-.07.02-.14.02-.21,0-.07-.03-.12-.07-.15-.14s-.04-.14,0-.21l1.8-4.3c.03-.08.08-.13.15-.15s.13-.01.2.01c.07.03.13.08.17.13.04.06.04.13,0,.22l-.79,1.87,7.2,3.02c.07.03.12.08.13.15.02.07.01.14-.02.22Z"/>
        <path class="cls-1" d="m17.86,56.44c-.2.4-.46.73-.77.98-.31.25-.67.39-1.08.41-.41.03-.89-.1-1.42-.36l-5.36-2.69c-.08-.04-.12-.09-.12-.16,0-.07,0-.14.04-.21.03-.06.08-.11.14-.16s.13-.04.21,0l5.36,2.69c.58.29,1.07.36,1.49.22.42-.14.76-.47,1.01-.97.25-.5.31-.96.17-1.39-.13-.42-.49-.78-1.07-1.07l-5.36-2.69c-.08-.04-.12-.09-.12-.16,0-.07.01-.14.05-.21.03-.06.08-.11.14-.16.06-.04.13-.04.21,0l5.36,2.69c.53.27.91.58,1.14.93s.33.72.32,1.12c-.02.4-.12.79-.32,1.19Z"/>
        <path class="cls-1" d="m19.83,52.55c-.04.07-.09.11-.16.13-.07.02-.13.01-.18-.02l-7-4.19c-.05-.03-.09-.08-.1-.15-.01-.07,0-.14.04-.2l1.07-1.79c.23-.38.51-.69.84-.92.33-.23.7-.34,1.11-.33.41,0,.88.16,1.39.47l3.17,1.9c.51.31.87.64,1.07,1s.28.74.23,1.14c-.04.4-.18.79-.41,1.17l-1.07,1.79Zm-.32-.56l.92-1.53c.29-.48.38-.93.27-1.36-.1-.43-.43-.81-.99-1.14l-3.17-1.9c-.55-.33-1.04-.44-1.47-.33-.43.11-.79.41-1.07.88l-.92,1.53,6.43,3.85Z"/>
        <path class="cls-1" d="m23.26,47.04c-.04.07-.1.11-.17.14-.07.02-.14.02-.2-.03l-6.76-4.54c-.07-.05-.11-.11-.1-.18,0-.07.03-.14.07-.2.04-.06.09-.1.16-.14.06-.03.13-.02.2.02l6.76,4.54c.07.04.1.1.1.18,0,.08-.02.14-.06.2Z"/>
        <path class="cls-1" d="m25.83,43.53c-.27.36-.58.63-.92.82-.35.19-.73.26-1.14.21-.41-.05-.86-.25-1.34-.61l-3.02-2.25c-.48-.36-.8-.73-.96-1.11-.16-.38-.2-.76-.12-1.15s.25-.76.52-1.11c.27-.36.58-.63.93-.83.35-.19.73-.26,1.14-.22.41.05.86.25,1.34.61l3.02,2.25c.48.36.8.73.96,1.11.16.38.2.77.12,1.15-.08.39-.26.76-.52,1.11Zm-.46-.33c.33-.45.47-.89.41-1.33-.06-.44-.35-.85-.86-1.24l-3.02-2.25c-.52-.39-1-.54-1.44-.47s-.83.33-1.16.78-.47.89-.41,1.33c.06.44.35.85.87,1.24l3.02,2.25c.52.39.99.55,1.43.48.44-.07.82-.32,1.16-.77Z"/>
        <path class="cls-1" d="m27.75,36.91s-.1.07-.17.07c-.07,0-.13-.02-.18-.07-.06-.05-.09-.11-.1-.18s.01-.13.05-.17l2.05-2.29c.05-.05.11-.08.18-.08s.14.02.2.07c.05.05.08.11.09.18s-.02.13-.07.19l-2.05,2.29Z"/>
      </g>
    </g>
  </g>
</svg>