<?xml version="1.0" encoding="UTF-8"?>
<svg id="Calque_2" data-name="Calque 2" xmlns="http://www.w3.org/2000/svg" viewBox="0 0 306.84 103.62">
  <defs>
    <style>
      .cls-1 {
        fill: #1a144b;
      }

      .cls-2 {
        fill: #9a98cb;
      }
    </style>
  </defs>
  <g id="Calque_1-2" data-name="Calque 1">
    <g>
      <g>
        <path class="cls-1" d="m75.97,103.47c-.16,0-.3-.05-.44-.14-.14-.09-.2-.23-.2-.42v-14.49c0-.18.07-.32.21-.4.14-.08.31-.13.49-.13.17,0,.33.04.48.13.15.09.22.22.22.4v13.74h6.07c.17,0,.29.07.36.2s.11.28.11.44c0,.17-.04.32-.11.46s-.19.2-.36.2h-6.84Z"/>
        <path class="cls-1" d="m86.92,103.47c-.11,0-.23-.02-.36-.07-.13-.05-.23-.12-.32-.21-.08-.09-.13-.2-.13-.31,0-.06,0-.11.02-.15l4.45-14.44c.06-.18.16-.32.32-.39s.33-.12.51-.12c.2,0,.38.04.54.13.16.09.26.21.31.38l4.43,14.44s.02.08.02.13c0,.11-.04.22-.13.31-.09.09-.19.17-.32.22-.13.06-.26.09-.4.09-.11,0-.22-.03-.32-.09-.1-.06-.17-.15-.21-.28l-.98-3.28h-5.88l-.98,3.28c-.04.13-.11.22-.21.28-.1.06-.22.09-.36.09Zm1.9-4.86h5.18l-2.58-8.58-2.6,8.58Z"/>
        <path class="cls-1" d="m105.15,103.6c-.82,0-1.57-.15-2.24-.45s-1.2-.78-1.6-1.45c-.4-.67-.6-1.55-.6-2.66v-6.58c0-1.11.2-1.99.6-2.66.4-.67.93-1.15,1.59-1.45.66-.3,1.4-.45,2.23-.45.91,0,1.7.16,2.36.48s1.19.76,1.56,1.31c.37.55.55,1.19.55,1.92,0,.26-.06.44-.19.54s-.3.16-.51.16c-.2,0-.37-.04-.5-.13-.13-.09-.21-.22-.22-.4-.06-.54-.21-1-.45-1.39-.24-.38-.57-.68-1-.88-.43-.21-.95-.31-1.58-.31-.95,0-1.69.27-2.21.8-.53.53-.79,1.35-.79,2.46v6.58c0,1.11.26,1.93.79,2.46.53.53,1.26.8,2.21.8s1.69-.27,2.23-.8c.53-.53.8-1.35.8-2.46v-2.53h-2.83c-.17,0-.3-.06-.4-.18s-.14-.26-.14-.42.04-.3.14-.43c.09-.13.22-.19.4-.19h3.73c.17,0,.3.06.39.17.09.11.14.25.14.4v3.17c0,1.11-.2,2-.6,2.66-.4.67-.93,1.15-1.6,1.45s-1.42.45-2.26.45Z"/>
        <path class="cls-1" d="m122.71,103.51c-.16,0-.3-.08-.43-.25-.13-.16-.23-.33-.32-.5l-3.28-6.39h-2.7v6.54c0,.19-.07.32-.22.42-.15.09-.31.14-.48.14-.18,0-.35-.05-.49-.14-.14-.09-.21-.23-.21-.42v-14.49c0-.14.05-.26.15-.36.1-.1.23-.16.38-.17h3.77c.84,0,1.6.13,2.3.38.69.26,1.25.69,1.67,1.3.42.61.63,1.45.63,2.51,0,.88-.15,1.6-.44,2.17-.29.57-.69,1-1.19,1.31-.51.31-1.07.52-1.69.63l3.28,6.31s.07.09.07.14c0,.05.01.1.01.14,0,.11-.04.23-.12.34-.08.11-.18.21-.31.28-.13.07-.26.11-.38.11Zm-6.73-8.35h2.9c.95,0,1.72-.23,2.31-.69.59-.46.88-1.22.88-2.29s-.29-1.85-.88-2.3-1.36-.68-2.31-.68h-2.9v5.96Z"/>
        <path class="cls-1" d="m128.59,103.47c-.16,0-.3-.05-.44-.14-.14-.09-.2-.23-.2-.42v-14.46c0-.18.07-.32.2-.41.13-.09.28-.14.44-.14h7.58c.19,0,.32.07.4.2s.13.28.13.44c0,.17-.05.32-.14.46-.09.13-.22.2-.39.2h-6.82v5.86h3.34c.17,0,.3.06.39.19.09.13.14.28.14.45,0,.14-.04.28-.13.4-.09.13-.22.19-.4.19h-3.34v5.88h6.82c.17,0,.3.06.39.19.09.13.14.28.14.47,0,.16-.04.3-.13.44s-.22.2-.4.2h-7.58Z"/>
        <path class="cls-1" d="m141.54,103.47c-.16,0-.3-.05-.44-.14-.13-.09-.2-.23-.2-.42v-14.46c0-.18.07-.32.2-.41s.28-.14.44-.14h7.58c.18,0,.32.07.4.2.09.13.13.28.13.44,0,.17-.05.32-.14.46s-.22.2-.39.2h-6.82v5.86h3.34c.17,0,.3.06.39.19.09.13.14.28.14.45,0,.14-.04.28-.13.4-.08.13-.22.19-.4.19h-3.34v5.88h6.82c.17,0,.3.06.39.19.09.13.14.28.14.47,0,.16-.04.3-.13.44-.08.13-.22.2-.4.2h-7.58Z"/>
        <path class="cls-1" d="m166.5,103.62c-.91,0-1.69-.14-2.34-.42-.65-.28-1.15-.6-1.5-.96s-.52-.67-.52-.93c0-.11.03-.23.09-.36.06-.13.15-.23.25-.31s.2-.12.3-.12c.14,0,.29.09.44.27s.35.38.6.62c.25.23.58.44.99.62.41.18.95.27,1.62.27s1.24-.11,1.71-.33c.47-.22.83-.55,1.09-.98.26-.43.38-.98.38-1.63s-.13-1.23-.38-1.64c-.26-.41-.59-.75-1.01-1.02-.42-.27-.88-.5-1.37-.68s-1-.38-1.5-.58-.97-.44-1.4-.73-.77-.67-1.02-1.15c-.26-.48-.38-1.08-.38-1.82s.14-1.4.43-1.91.65-.9,1.1-1.18c.45-.28.93-.49,1.46-.61.53-.12,1.04-.18,1.53-.18.4,0,.81.03,1.22.1.42.06.81.15,1.16.27.36.11.64.25.86.42.22.16.33.34.33.54,0,.09-.02.19-.07.31-.05.12-.12.23-.2.33-.08.1-.2.15-.34.15-.13,0-.31-.07-.53-.2-.23-.13-.54-.27-.93-.4s-.9-.2-1.52-.2c-.51,0-1,.07-1.48.21-.48.14-.86.39-1.16.76-.3.36-.45.86-.45,1.48,0,.57.13,1.03.39,1.37s.6.63,1.02.84.88.41,1.37.59c.5.18,1,.38,1.5.6.5.22.96.5,1.38.83.42.33.76.77,1.01,1.31.26.54.38,1.24.38,2.09,0,1.01-.19,1.84-.57,2.48-.38.65-.91,1.13-1.59,1.44-.67.31-1.45.47-2.33.47Z"/>
        <path class="cls-1" d="m179.02,103.47c-.19,0-.35-.05-.49-.14-.14-.09-.21-.23-.21-.42v-13.7h-3.58c-.17,0-.31-.07-.4-.2-.1-.13-.15-.29-.15-.46s.05-.32.15-.46c.1-.13.23-.2.4-.2h8.54c.18,0,.32.07.4.2s.13.28.13.44c0,.17-.04.33-.13.47-.09.14-.22.21-.4.21h-3.56v13.7c0,.19-.08.32-.23.42-.15.09-.31.14-.48.14Z"/>
        <path class="cls-1" d="m192.21,103.6c-.84,0-1.59-.15-2.26-.45-.67-.3-1.2-.78-1.6-1.45-.4-.67-.6-1.55-.6-2.66v-10.61c0-.18.07-.32.21-.4.14-.08.31-.13.49-.13s.35.04.49.13c.14.09.21.22.21.4v10.61c0,1.11.27,1.93.81,2.46.54.53,1.29.8,2.24.8s1.72-.27,2.26-.8c.54-.53.81-1.35.81-2.46v-10.61c0-.18.07-.32.21-.4.14-.08.3-.13.49-.13s.35.04.49.13c.14.09.21.22.21.4v10.61c0,1.11-.2,2-.59,2.66-.39.67-.93,1.15-1.61,1.45s-1.44.45-2.28.45Z"/>
        <path class="cls-1" d="m202.6,103.47c-.2,0-.36-.05-.47-.16s-.17-.23-.17-.37v-14.51c0-.14.06-.27.17-.37s.27-.16.47-.16h3.77c.84,0,1.59.15,2.27.45.67.3,1.21.78,1.6,1.45.39.67.59,1.56.59,2.66v6.45c0,1.11-.2,2-.59,2.66-.39.67-.92,1.15-1.6,1.45-.67.3-1.43.45-2.27.45h-3.77Zm.77-1.3h3c.95,0,1.7-.27,2.24-.8s.81-1.35.81-2.46v-6.45c0-1.11-.27-1.93-.81-2.46s-1.28-.8-2.22-.8h-3.03v12.97Z"/>
        <path class="cls-1" d="m216.73,103.47c-.18,0-.35-.05-.49-.14-.14-.09-.21-.23-.21-.42v-14.49c0-.18.07-.32.21-.4.14-.08.31-.13.49-.13.17,0,.33.04.48.13.15.09.22.22.22.4v14.49c0,.19-.07.32-.22.42-.15.09-.31.14-.48.14Z"/>
        <path class="cls-1" d="m227.06,103.6c-.82,0-1.57-.15-2.24-.45-.67-.3-1.2-.78-1.6-1.45-.4-.67-.6-1.55-.6-2.66v-6.58c0-1.11.2-1.99.6-2.66.4-.67.93-1.15,1.6-1.45.67-.3,1.41-.45,2.24-.45s1.59.15,2.26.45c.67.3,1.2.78,1.6,1.45.4.67.6,1.56.6,2.66v6.58c0,1.11-.2,2-.6,2.66-.4.67-.93,1.15-1.6,1.45-.67.3-1.42.45-2.26.45Zm0-1.3c.95,0,1.69-.26,2.23-.79.53-.53.8-1.35.8-2.47v-6.58c0-1.12-.27-1.95-.81-2.47s-1.28-.79-2.22-.79-1.69.26-2.22.79c-.53.53-.79,1.35-.79,2.47v6.58c0,1.12.27,1.95.8,2.47.53.53,1.27.79,2.2.79Z"/>
      </g>
      <g>
        <path class="cls-2" d="m86.18,64.36c-2.68-.04-4.6-.34-5.76-.88s-1.97-1.75-2.44-3.64c-.47-1.88-.71-4.96-.74-9.22l-.2-35.51c-.02-4.26.19-7.33.63-9.22.45-1.89,1.24-3.11,2.4-3.67,1.15-.55,3.07-.87,5.75-.94.3,0,.46-.11.45-.32s-.15-.32-.46-.32c-2.8.02-5.17.09-7.12.22-.61.06-1.43.1-2.47.11l-7.21.04c-3.04.02-5.65,1.23-7.83,3.65-2.18,2.42-3.99,5.4-5.43,8.93-1.44,3.54-3.18,8.48-5.21,14.82-1.49,4.76-2.99,9.18-4.49,13.26-.2-2.37-1.02-4.74-2.46-7.11-1.45-2.37-3.13-4.55-5.06-6.55-1.93-2-4.54-4.54-7.85-7.62-4.59-4.23-8.03-7.76-10.33-10.58-2.3-2.82-3.45-5.65-3.47-8.52l-5.93.03c-1.04,0-1.86-.02-2.47-.08-1.95-.11-4.32-.16-7.12-.14-.31,0-.46.11-.45.32s.15.32.46.32c2.68.05,4.6.34,5.76.88s1.97,1.76,2.44,3.64c.47,1.88.71,4.96.74,9.22l.3,35.6c.02,4.02-.86,7.31-2.64,9.88-1.78,2.57-4.31,3.89-7.6,3.97-.24,0-.37.11-.36.32,0,.21.12.32.37.32,2.74-.02,5.39-.09,7.94-.23.85-.07,1.85-.1,3.01-.11h.27c1.22,0,2.16.02,2.83.07,2.43.11,5.08.15,7.94.14.07,0,.14,0,.21,0,.02-.27.05-.55.1-.83-.11,0-.21.01-.31.01-3.59.02-6.31-1.55-8.15-4.7-1.84-3.15-2.78-7.07-2.81-11.76l-.13-39.26c.01,1.77.98,3.8,2.91,6.1s4.91,5.39,8.96,9.26c3.92,3.69,7.08,6.85,9.5,9.49s4.52,5.48,6.3,8.55c1.78,3.06,2.71,6.06,2.79,8.98.05.42.1.83.15,1.25.61-1.05,1.52-2.67,2.53-4.69,2.42-4.87,3.92-9.65,6.88-18.98,1.97-6.22,3.66-11.07,5.07-14.54,1.41-3.48,3.14-6.41,5.2-8.79,2.05-2.39,4.54-3.62,7.47-3.7l.28,48.93c.02,4.32-.19,7.41-.63,9.27-.45,1.86-1.23,3.08-2.35,3.67-1.12.59-3.02.92-5.7.99-.3,0-.46.11-.45.32s.15.32.46.32c2.8-.08,5.08-.18,6.85-.31l2.74-.11,6.39-.13c1.03,0,1.86.02,2.47.08,1.95.11,4.32.16,7.12.14.3,0,.46-.11.45-.32,0-.21-.15-.32-.46-.32Z"/>
        <path class="cls-2" d="m214.79,4.15c4.98,2.8,8.84,6.67,11.57,11.62,2.74,4.94,4.12,10.49,4.16,16.64.04,6.45-1.48,12.23-4.56,17.33s-7.36,9.11-12.85,12.03c-5.49,2.92-11.67,4.4-18.55,4.44-6.15.03-11.63-1.36-16.46-4.2-4.82-2.83-8.58-6.74-11.25-11.71-2.68-4.98-4.03-10.51-4.07-16.59-.03-5.78,1.44-11.25,4.42-16.41,2.98-5.16,7.14-9.32,12.48-12.49C185.03,1.64,191.01.04,197.65,0c6.45-.04,12.17,1.34,17.14,4.15Zm-33.04.92c-3.67,2.36-6.56,5.58-8.66,9.64-2.11,4.06-3.15,8.52-3.12,13.39.03,5.96,1.3,11.78,3.8,17.46,2.5,5.68,5.99,10.3,10.49,13.86,4.49,3.56,9.6,5.33,15.32,5.3,4.63-.03,8.74-1.22,12.35-3.59,3.61-2.37,6.42-5.55,8.44-9.54,2.02-4,3.01-8.43,2.98-13.3-.03-6.09-1.3-11.97-3.8-17.64s-5.96-10.3-10.4-13.86c-4.43-3.57-9.48-5.33-15.14-5.3-4.5.03-8.59,1.22-12.26,3.59Z"/>
        <path class="cls-2" d="m306.84.99c0,.21-.15.32-.46.32-3.29.02-5.82,1.31-7.6,3.88-1.78,2.57-2.66,5.89-2.64,9.97l.29,49.76c0,.18-.13.27-.41.28-.27,0-.41-.09-.41-.27-.03-5.78-2.45-11.15-7.26-16.12-4.81-4.96-11.18-9.89-19.12-14.77-7.27-4.46-12.95-8.74-17.05-12.82-4.1-4.09-6.16-8.41-6.19-12.97l.24,41.26c.03,4.5.94,8.17,2.76,10.99,1.81,2.82,4.36,4.25,7.65,4.29.3,0,.46.11.46.32,0,.21-.15.32-.45.32-2.56.01-5.11-.03-7.67-.14-.85-.06-1.89-.08-3.1-.07-1.22,0-2.25.04-3.1.11-2.56.14-5.11.21-7.67.23-.24,0-.37-.11-.37-.32,0-.21.12-.32.36-.32,3.29-.08,5.82-1.4,7.6-3.97,1.78-2.57,2.66-5.86,2.64-9.88l-.19-32.77c-.03-5.17-.28-8.87-.75-11.09s-1.28-3.66-2.44-4.32c-1.16-.66-3.08-1.02-5.76-1.06-.3,0-.46-.13-.46-.41s.15-.41.45-.41c1.83,0,4.2.07,7.12.23l2.47.08,6.3-.04c.03,5.05,1.73,9.53,5.1,13.44,3.37,3.91,8.08,7.82,14.13,11.74l2.02,1.36c5.62,3.68,9.71,6.43,12.28,8.24s4.69,3.58,6.38,5.3c1.68,1.72,2.86,3.5,3.55,5.32l-.17-29.95c-.03-4.5-.95-8.16-2.76-10.98-1.81-2.82-4.36-4.25-7.65-4.29-.24,0-.37-.1-.37-.32s.12-.32.36-.32c2.56-.01,5.11.03,7.67.14.85.06,1.89.08,3.1.07,1.16,0,2.16-.04,3.01-.11,2.56-.14,5.11-.21,7.67-.23.3,0,.46.1.46.32Z"/>
        <g>
          <path class="cls-1" d="m150.21,50.2c-5.44,7.47-16.71,14.34-30.24,12.81-14.85-1.67-26.59-12.62-29.35-27.48-2.6-14.01,4.11-26.15,12.6-32.55-2.56,3.35-4.62,7.34-5.79,11.77-1.18,4.45-1.48,9.36-.53,14.51,2.76,14.86,14.51,25.8,29.35,27.48,5.92.67,11.41-.27,16.17-2.16,2.89-1.15,5.52-2.66,7.8-4.37Z"/>
          <path class="cls-1" d="m139.14,39.51c3.49-4.37,5.06-10.28,3.91-16.01-1.83-9.05-9.67-15.55-18.84-15.65-4.2-.05-7.94,1.26-10.92,3.21,3.16-3.99,8.72-7.43,15.5-7.35,9.17.1,17.02,6.59,18.84,15.65,1.58,7.84-1.94,15.99-8.48,20.16Z"/>
        </g>
      </g>
    </g>
  </g>
</svg>