<?xml version="1.0" encoding="UTF-8"?>
<svg id="Calque_2" data-name="Calque 2" xmlns="http://www.w3.org/2000/svg" viewBox="0 0 172.48 58.25">
  <defs>
    <style>
      .cls-1 {
        fill: #a7a7a7;
      }
    </style>
  </defs>
  <g id="Calque_1-2" data-name="Calque 1">
    <g>
      <g>
        <path d="m42.7,58.16c-.09,0-.17-.03-.25-.08-.08-.05-.11-.13-.11-.23v-8.14c0-.1.04-.18.12-.23.08-.05.17-.07.28-.07.1,0,.19.02.27.07.08.05.13.12.13.23v7.72h3.41c.1,0,.16.04.2.11s.06.16.06.25c0,.1-.02.18-.06.26s-.11.11-.2.11h-3.84Z"/>
        <path d="m48.86,58.16c-.06,0-.13-.01-.2-.04-.07-.03-.13-.07-.18-.12-.05-.05-.07-.11-.07-.17,0-.03,0-.06.01-.08l2.5-8.12c.03-.1.09-.18.18-.22s.18-.07.29-.07c.11,0,.21.02.31.07.09.05.15.12.17.22l2.49,8.12s.01.05.01.07c0,.06-.02.12-.07.17-.05.05-.11.09-.18.13-.07.03-.15.05-.23.05-.06,0-.12-.02-.18-.05-.06-.03-.1-.08-.12-.16l-.55-1.84h-3.3l-.55,1.84c-.02.07-.06.12-.12.16-.06.03-.12.05-.2.05Zm1.07-2.73h2.91l-1.45-4.83-1.46,4.83Z"/>
        <path d="m59.11,58.23c-.46,0-.88-.08-1.26-.25s-.67-.44-.9-.81c-.22-.38-.34-.87-.34-1.5v-3.7c0-.62.11-1.12.34-1.5.22-.38.52-.65.89-.81.37-.17.79-.25,1.25-.25.51,0,.95.09,1.33.27s.67.42.87.74c.21.31.31.67.31,1.08,0,.14-.04.25-.11.31s-.17.09-.29.09c-.11,0-.21-.02-.28-.07-.08-.05-.12-.12-.13-.23-.03-.3-.12-.56-.25-.78-.14-.22-.32-.38-.56-.5-.24-.12-.54-.17-.89-.17-.53,0-.95.15-1.24.45-.3.3-.44.76-.44,1.38v3.7c0,.62.15,1.08.44,1.38.3.3.71.45,1.24.45s.95-.15,1.25-.45c.3-.3.45-.76.45-1.38v-1.42h-1.59c-.1,0-.17-.03-.22-.1s-.08-.15-.08-.23.03-.17.08-.24c.05-.07.13-.11.22-.11h2.1c.1,0,.17.03.22.1.05.06.08.14.08.23v1.78c0,.62-.11,1.12-.34,1.5-.22.38-.52.65-.9.81s-.8.25-1.27.25Z"/>
        <path d="m68.98,58.19c-.09,0-.17-.05-.24-.14-.07-.09-.13-.19-.18-.28l-1.84-3.59h-1.52v3.68c0,.1-.04.18-.13.23-.08.05-.17.08-.27.08-.1,0-.2-.03-.28-.08-.08-.05-.12-.13-.12-.23v-8.14c0-.08.03-.15.08-.2.06-.06.13-.09.22-.1h2.12c.47,0,.9.07,1.29.22.39.14.7.39.94.73.24.34.35.81.35,1.41,0,.49-.08.9-.25,1.22-.16.32-.39.56-.67.74-.28.17-.6.29-.95.35l1.84,3.54s.04.05.04.08c0,.03,0,.05,0,.08,0,.06-.02.13-.07.19-.04.06-.1.12-.17.16-.07.04-.14.06-.22.06Zm-3.78-4.69h1.63c.53,0,.97-.13,1.3-.39.33-.26.5-.69.5-1.29s-.17-1.04-.5-1.29-.76-.38-1.3-.38h-1.63v3.35Z"/>
        <path d="m72.28,58.16c-.09,0-.17-.03-.25-.08-.08-.05-.11-.13-.11-.23v-8.13c0-.1.04-.18.11-.23.08-.05.16-.08.25-.08h4.26c.1,0,.18.04.23.11s.07.16.07.25c0,.1-.03.18-.08.26-.05.08-.13.11-.22.11h-3.83v3.29h1.88c.1,0,.17.04.22.11.05.07.08.16.08.25,0,.08-.02.16-.07.23-.05.07-.12.11-.23.11h-1.88v3.3h3.83c.1,0,.17.04.22.11.05.07.08.16.08.26,0,.09-.02.17-.07.25s-.12.11-.23.11h-4.26Z"/>
        <path d="m79.56,58.16c-.09,0-.17-.03-.25-.08-.08-.05-.11-.13-.11-.23v-8.13c0-.1.04-.18.11-.23s.16-.08.25-.08h4.26c.1,0,.18.04.23.11.05.08.07.16.07.25,0,.1-.03.18-.08.26s-.13.11-.22.11h-3.83v3.29h1.88c.1,0,.17.04.22.11.05.07.08.16.08.25,0,.08-.02.16-.07.23-.05.07-.12.11-.23.11h-1.88v3.3h3.83c.1,0,.17.04.22.11.05.07.08.16.08.26,0,.09-.02.17-.07.25-.05.08-.12.11-.23.11h-4.26Z"/>
        <path d="m93.59,58.25c-.51,0-.95-.08-1.32-.23-.37-.16-.65-.34-.84-.54s-.29-.38-.29-.52c0-.06.02-.13.05-.2.04-.07.08-.13.14-.17s.11-.07.17-.07c.08,0,.16.05.25.15s.2.22.34.35c.14.13.33.25.56.35.23.1.53.15.91.15s.69-.06.96-.19c.26-.12.47-.31.61-.55.14-.24.22-.55.22-.92s-.07-.69-.22-.92c-.14-.23-.33-.42-.57-.57-.24-.15-.49-.28-.77-.38s-.56-.21-.84-.32-.55-.25-.78-.41-.43-.38-.57-.65c-.14-.27-.22-.61-.22-1.02s.08-.79.24-1.07.37-.5.62-.66c.25-.16.52-.27.82-.34.3-.07.58-.1.86-.1.22,0,.45.02.69.05.24.04.45.09.65.15.2.06.36.14.49.23.12.09.19.19.19.31,0,.05-.01.11-.04.17-.03.07-.07.13-.11.19-.05.06-.11.08-.19.08-.07,0-.17-.04-.3-.11-.13-.08-.3-.15-.52-.23s-.5-.11-.86-.11c-.29,0-.56.04-.83.12-.27.08-.49.22-.65.42-.17.2-.25.48-.25.83,0,.32.07.58.22.77s.34.35.57.47.49.23.77.33c.28.1.56.21.84.34.28.12.54.28.78.47.24.19.43.43.57.74.14.3.22.69.22,1.17,0,.57-.11,1.03-.32,1.39-.22.36-.51.63-.89.81-.38.18-.82.26-1.31.26Z"/>
        <path d="m100.63,58.16c-.1,0-.2-.03-.28-.08-.08-.05-.12-.13-.12-.23v-7.7h-2.01c-.1,0-.17-.04-.23-.11-.06-.08-.08-.16-.08-.26s.03-.18.08-.26c.06-.08.13-.11.23-.11h4.8c.1,0,.18.04.23.11s.07.16.07.25c0,.1-.02.18-.07.26-.05.08-.12.12-.23.12h-2v7.7c0,.1-.04.18-.13.23-.08.05-.17.08-.27.08Z"/>
        <path d="m108.04,58.23c-.47,0-.89-.08-1.27-.25-.37-.17-.67-.44-.9-.81-.22-.38-.34-.87-.34-1.5v-5.96c0-.1.04-.18.12-.23.08-.05.17-.07.28-.07s.2.02.28.07c.08.05.12.12.12.23v5.96c0,.62.15,1.08.46,1.38.3.3.72.45,1.26.45s.97-.15,1.27-.45c.3-.3.46-.76.46-1.38v-5.96c0-.1.04-.18.12-.23.08-.05.17-.07.27-.07s.2.02.27.07c.08.05.12.12.12.23v5.96c0,.62-.11,1.12-.33,1.5-.22.38-.52.65-.9.81s-.81.25-1.28.25Z"/>
        <path d="m113.89,58.16c-.11,0-.2-.03-.26-.09s-.1-.13-.1-.21v-8.15c0-.08.03-.15.1-.21s.15-.09.26-.09h2.12c.47,0,.9.08,1.28.25.38.17.68.44.9.81.22.38.33.87.33,1.5v3.63c0,.62-.11,1.12-.33,1.5-.22.38-.52.65-.9.81-.38.17-.8.25-1.28.25h-2.12Zm.43-.73h1.69c.53,0,.95-.15,1.26-.45s.46-.76.46-1.38v-3.63c0-.62-.15-1.08-.46-1.38s-.72-.45-1.25-.45h-1.7v7.29Z"/>
        <path d="m121.82,58.16c-.1,0-.19-.03-.27-.08-.08-.05-.12-.13-.12-.23v-8.14c0-.1.04-.18.12-.23.08-.05.17-.07.27-.07.1,0,.19.02.27.07.08.05.13.12.13.23v8.14c0,.1-.04.18-.13.23-.08.05-.17.08-.27.08Z"/>
        <path d="m127.63,58.23c-.46,0-.88-.08-1.26-.25-.38-.17-.68-.44-.9-.81-.22-.38-.34-.87-.34-1.5v-3.7c0-.62.11-1.12.34-1.5.22-.38.52-.65.9-.81.37-.17.79-.25,1.26-.25s.89.08,1.27.25c.37.17.67.44.9.81.22.38.34.87.34,1.5v3.7c0,.62-.11,1.12-.34,1.5-.22.38-.52.65-.9.81-.38.17-.8.25-1.27.25Zm0-.73c.53,0,.95-.15,1.25-.44.3-.3.45-.76.45-1.39v-3.7c0-.63-.15-1.09-.46-1.39s-.72-.44-1.25-.44-.95.15-1.25.44c-.3.3-.44.76-.44,1.39v3.7c0,.63.15,1.09.45,1.39.3.3.71.44,1.24.44Z"/>
      </g>
      <g>
        <path class="cls-1" d="m48.44,36.18c-1.51-.03-2.58-.19-3.24-.49s-1.11-.99-1.37-2.05c-.26-1.06-.4-2.79-.41-5.18l-.11-19.96c-.01-2.39.1-4.12.35-5.18.25-1.06.7-1.75,1.35-2.06.65-.31,1.72-.49,3.23-.53.17,0,.26-.06.26-.18s-.09-.18-.26-.18c-1.57,0-2.91.05-4,.13-.34.04-.8.06-1.39.06l-4.05.02c-1.71,0-3.18.69-4.4,2.05-1.22,1.36-2.24,3.03-3.05,5.02-.81,1.99-1.79,4.77-2.93,8.33-.84,2.67-1.68,5.16-2.52,7.46-.11-1.33-.57-2.67-1.38-3.99-.81-1.33-1.76-2.56-2.84-3.68-1.08-1.12-2.55-2.55-4.41-4.28-2.58-2.38-4.52-4.36-5.81-5.95-1.29-1.58-1.94-3.18-1.95-4.79l-3.34.02c-.58,0-1.04-.01-1.39-.04-1.1-.06-2.43-.09-4-.08-.17,0-.26.06-.26.18s.09.18.26.18c1.51.03,2.58.19,3.24.49s1.11.99,1.37,2.05c.26,1.06.4,2.79.41,5.18l.17,20.01c.01,2.26-.48,4.11-1.48,5.55-1,1.44-2.43,2.19-4.27,2.23-.14,0-.21.06-.2.18,0,.12.07.18.21.18,1.54,0,3.03-.05,4.46-.13.48-.04,1.04-.06,1.69-.06h.15c.68,0,1.21,0,1.59.04,1.37.06,2.86.09,4.47.08.04,0,.08,0,.12,0,.01-.15.03-.31.05-.46-.06,0-.12,0-.18,0-2.02.01-3.55-.87-4.58-2.64-1.04-1.77-1.56-3.98-1.58-6.61l-.08-22.07c0,.99.55,2.13,1.64,3.43s2.76,3.03,5.03,5.21c2.2,2.07,3.98,3.85,5.34,5.33s2.54,3.08,3.54,4.8c1,1.72,1.52,3.4,1.57,5.05.03.23.06.47.08.7.34-.59.86-1.5,1.42-2.63,1.36-2.74,2.2-5.42,3.87-10.67,1.11-3.5,2.06-6.22,2.85-8.18.79-1.95,1.77-3.6,2.92-4.94,1.15-1.34,2.55-2.03,4.2-2.08l.16,27.51c.01,2.43-.1,4.17-.35,5.21-.25,1.05-.69,1.73-1.32,2.06-.63.33-1.7.52-3.2.56-.17,0-.26.06-.26.18s.09.18.26.18c1.57-.04,2.86-.1,3.85-.18l1.54-.06,3.59-.07c.58,0,1.04.01,1.39.04,1.09.06,2.43.09,4,.08.17,0,.26-.06.26-.18,0-.12-.09-.18-.26-.18Z"/>
        <path class="cls-1" d="m120.74,2.33c2.8,1.57,4.97,3.75,6.5,6.53,1.54,2.78,2.32,5.9,2.34,9.35.02,3.63-.83,6.87-2.56,9.74s-4.14,5.12-7.22,6.76c-3.09,1.64-6.56,2.48-10.43,2.5-3.46.02-6.54-.77-9.25-2.36-2.71-1.59-4.82-3.79-6.32-6.58-1.5-2.8-2.27-5.91-2.29-9.33-.02-3.25.81-6.33,2.49-9.23,1.68-2.9,4.02-5.24,7.02-7.02C104.01.92,107.37.02,111.1,0c3.63-.02,6.84.76,9.64,2.33Zm-18.57.52c-2.06,1.33-3.68,3.13-4.87,5.42-1.18,2.28-1.77,4.79-1.75,7.53.02,3.35.73,6.62,2.13,9.82,1.4,3.19,3.37,5.79,5.9,7.79,2.53,2,5.4,3,8.61,2.98,2.6-.02,4.91-.69,6.94-2.02,2.03-1.33,3.61-3.12,4.74-5.36,1.13-2.25,1.69-4.74,1.68-7.48-.02-3.42-.73-6.73-2.14-9.92s-3.35-5.79-5.84-7.79c-2.49-2-5.33-3-8.51-2.98-2.53.01-4.83.69-6.89,2.02Z"/>
        <path class="cls-1" d="m172.48.56c0,.12-.08.18-.26.18-1.85.01-3.27.74-4.27,2.18-1,1.44-1.49,3.31-1.48,5.6l.16,27.97c0,.1-.08.15-.23.16-.15,0-.23-.05-.23-.15-.02-3.25-1.38-6.27-4.08-9.06-2.7-2.79-6.28-5.56-10.75-8.3-4.09-2.51-7.28-4.91-9.59-7.21-2.31-2.3-3.46-4.73-3.48-7.29l.13,23.2c.01,2.53.53,4.59,1.55,6.18,1.02,1.58,2.45,2.39,4.3,2.41.17,0,.26.06.26.18,0,.12-.08.18-.26.18-1.44,0-2.87-.02-4.31-.08-.48-.03-1.06-.05-1.75-.04-.68,0-1.27.02-1.74.06-1.44.08-2.87.12-4.31.13-.14,0-.21-.06-.21-.18,0-.12.07-.18.2-.18,1.85-.04,3.27-.79,4.27-2.23,1-1.44,1.49-3.29,1.48-5.55l-.11-18.42c-.02-2.91-.16-4.99-.42-6.23s-.72-2.06-1.37-2.43c-.65-.37-1.73-.57-3.24-.6-.17,0-.26-.08-.26-.23s.08-.23.26-.23c1.03,0,2.36.04,4,.13l1.39.04,3.54-.02c.02,2.84.97,5.36,2.87,7.55,1.89,2.2,4.54,4.4,7.94,6.6l1.13.76c3.16,2.07,5.46,3.61,6.9,4.63s2.64,2.01,3.58,2.98c.95.97,1.61,1.97,1.99,2.99l-.1-16.83c-.01-2.53-.53-4.59-1.55-6.17-1.02-1.58-2.45-2.39-4.3-2.41-.14,0-.21-.06-.21-.18s.07-.18.2-.18c1.44,0,2.87.02,4.31.08.48.03,1.06.05,1.75.04.65,0,1.21-.02,1.69-.06,1.44-.08,2.87-.12,4.31-.13.17,0,.26.06.26.18Z"/>
        <g>
          <path d="m84.44,28.22c-3.06,4.2-9.39,8.06-17,7.2-8.35-.94-14.95-7.09-16.5-15.45-1.46-7.88,2.31-14.7,7.08-18.3-1.44,1.88-2.59,4.13-3.26,6.61-.66,2.5-.83,5.26-.3,8.15,1.55,8.35,8.15,14.5,16.5,15.45,3.33.38,6.41-.15,9.09-1.21,1.63-.65,3.1-1.5,4.38-2.46Z"/>
          <path d="m78.22,22.21c1.96-2.46,2.84-5.78,2.2-9-1.03-5.09-5.44-8.74-10.59-8.8-2.36-.03-4.46.71-6.14,1.8,1.77-2.25,4.9-4.18,8.71-4.13,5.15.06,9.57,3.71,10.59,8.8.89,4.4-1.09,8.99-4.77,11.33Z"/>
        </g>
      </g>
    </g>
  </g>
</svg>