<?xml version="1.0" encoding="UTF-8"?>
<svg id="Calque_2" data-name="Calque 2" xmlns="http://www.w3.org/2000/svg" viewBox="0 0 306.84 66.21">
  <defs>
    <style>
      .cls-1 {
        fill: #1a144b;
      }

      .cls-2 {
        fill: #9a98cb;
      }
    </style>
  </defs>
  <g id="Calque_1-2" data-name="Calque 1">
    <g>
      <path class="cls-2" d="m86.18,64.36c-2.68-.04-4.6-.34-5.76-.88s-1.97-1.75-2.44-3.64c-.47-1.88-.71-4.96-.74-9.22l-.2-35.51c-.02-4.26.19-7.33.63-9.22.45-1.89,1.24-3.11,2.4-3.67,1.15-.55,3.07-.87,5.75-.94.3,0,.46-.11.45-.32s-.15-.32-.46-.32c-2.8.02-5.17.09-7.12.22-.61.06-1.43.1-2.47.11l-7.21.04c-3.04.02-5.65,1.23-7.83,3.65-2.18,2.42-3.99,5.4-5.43,8.93-1.44,3.54-3.18,8.48-5.21,14.82-1.49,4.76-2.99,9.18-4.49,13.26-.2-2.37-1.02-4.74-2.46-7.11-1.45-2.37-3.13-4.55-5.06-6.55-1.93-2-4.54-4.54-7.85-7.62-4.59-4.23-8.03-7.76-10.33-10.58-2.3-2.82-3.45-5.65-3.47-8.52l-5.93.03c-1.04,0-1.86-.02-2.47-.08-1.95-.11-4.32-.16-7.12-.14-.31,0-.46.11-.45.32s.15.32.46.32c2.68.05,4.6.34,5.76.88s1.97,1.76,2.44,3.64c.47,1.88.71,4.96.74,9.22l.3,35.6c.02,4.02-.86,7.31-2.64,9.88-1.78,2.57-4.31,3.89-7.6,3.97-.24,0-.37.11-.36.32,0,.21.12.32.37.32,2.74-.02,5.39-.09,7.94-.23.85-.07,1.85-.1,3.01-.11h.27c1.22,0,2.16.02,2.83.07,2.43.11,5.08.15,7.94.14.07,0,.14,0,.21,0,.02-.27.05-.55.1-.83-.11,0-.21.01-.31.01-3.59.02-6.31-1.55-8.15-4.7-1.84-3.15-2.78-7.07-2.81-11.76l-.13-39.26c.01,1.77.98,3.8,2.91,6.1s4.91,5.39,8.96,9.26c3.92,3.69,7.08,6.85,9.5,9.49s4.52,5.48,6.3,8.55c1.78,3.06,2.71,6.06,2.79,8.98.05.42.1.83.15,1.25.61-1.05,1.52-2.67,2.53-4.69,2.42-4.87,3.92-9.65,6.88-18.98,1.97-6.22,3.66-11.07,5.07-14.54,1.41-3.48,3.14-6.41,5.2-8.79,2.05-2.39,4.54-3.62,7.47-3.7l.28,48.93c.02,4.32-.19,7.41-.63,9.27-.45,1.86-1.23,3.08-2.35,3.67-1.12.59-3.02.92-5.7.99-.3,0-.46.11-.45.32s.15.32.46.32c2.8-.08,5.08-.18,6.85-.31l2.74-.11,6.39-.13c1.03,0,1.86.02,2.47.08,1.95.11,4.32.16,7.12.14.3,0,.46-.11.45-.32,0-.21-.15-.32-.46-.32Z"/>
      <path class="cls-2" d="m214.79,4.15c4.98,2.8,8.84,6.67,11.57,11.62,2.74,4.94,4.12,10.49,4.16,16.64.04,6.45-1.48,12.23-4.56,17.33s-7.36,9.11-12.85,12.03c-5.49,2.92-11.67,4.4-18.55,4.44-6.15.03-11.63-1.36-16.46-4.2-4.82-2.83-8.58-6.74-11.25-11.71-2.68-4.98-4.03-10.51-4.07-16.59-.03-5.78,1.44-11.25,4.42-16.41,2.98-5.16,7.14-9.32,12.48-12.49C185.03,1.64,191.01.04,197.65,0c6.45-.04,12.17,1.34,17.14,4.15Zm-33.04.92c-3.67,2.36-6.56,5.58-8.66,9.64-2.11,4.06-3.15,8.52-3.12,13.39.03,5.96,1.3,11.78,3.8,17.46,2.5,5.68,5.99,10.3,10.49,13.86,4.49,3.56,9.6,5.33,15.32,5.3,4.63-.03,8.74-1.22,12.35-3.59,3.61-2.37,6.42-5.55,8.44-9.54,2.02-4,3.01-8.43,2.98-13.3-.03-6.09-1.3-11.97-3.8-17.64s-5.96-10.3-10.4-13.86c-4.43-3.57-9.48-5.33-15.14-5.3-4.5.03-8.59,1.22-12.26,3.59Z"/>
      <path class="cls-2" d="m306.84.99c0,.21-.15.32-.46.32-3.29.02-5.82,1.31-7.6,3.88-1.78,2.57-2.66,5.89-2.64,9.97l.29,49.76c0,.18-.13.27-.41.28-.27,0-.41-.09-.41-.27-.03-5.78-2.45-11.15-7.26-16.12-4.81-4.96-11.18-9.89-19.12-14.77-7.27-4.46-12.95-8.74-17.05-12.82-4.1-4.09-6.16-8.41-6.19-12.97l.24,41.26c.03,4.5.94,8.17,2.76,10.99,1.81,2.82,4.36,4.25,7.65,4.29.3,0,.46.11.46.32,0,.21-.15.32-.45.32-2.56.01-5.11-.03-7.67-.14-.85-.06-1.89-.08-3.1-.07-1.22,0-2.25.04-3.1.11-2.56.14-5.11.21-7.67.23-.24,0-.37-.11-.37-.32,0-.21.12-.32.36-.32,3.29-.08,5.82-1.4,7.6-3.97,1.78-2.57,2.66-5.86,2.64-9.88l-.19-32.77c-.03-5.17-.28-8.87-.75-11.09s-1.28-3.66-2.44-4.32c-1.16-.66-3.08-1.02-5.76-1.06-.3,0-.46-.13-.46-.41s.15-.41.45-.41c1.83,0,4.2.07,7.12.23l2.47.08,6.3-.04c.03,5.05,1.73,9.53,5.1,13.44,3.37,3.91,8.08,7.82,14.13,11.74l2.02,1.36c5.62,3.68,9.71,6.43,12.28,8.24s4.69,3.58,6.38,5.3c1.68,1.72,2.86,3.5,3.55,5.32l-.17-29.95c-.03-4.5-.95-8.16-2.76-10.98-1.81-2.82-4.36-4.25-7.65-4.29-.24,0-.37-.1-.37-.32s.12-.32.36-.32c2.56-.01,5.11.03,7.67.14.85.06,1.89.08,3.1.07,1.16,0,2.16-.04,3.01-.11,2.56-.14,5.11-.21,7.67-.23.3,0,.46.1.46.32Z"/>
      <g>
        <path class="cls-1" d="m150.21,50.2c-5.44,7.47-16.71,14.34-30.24,12.81-14.85-1.67-26.59-12.62-29.35-27.48-2.6-14.01,4.11-26.15,12.6-32.55-2.56,3.35-4.62,7.34-5.79,11.77-1.18,4.45-1.48,9.36-.53,14.51,2.76,14.86,14.51,25.8,29.35,27.48,5.92.67,11.41-.27,16.17-2.16,2.89-1.15,5.52-2.66,7.8-4.37Z"/>
        <path class="cls-1" d="m139.14,39.51c3.49-4.37,5.06-10.28,3.91-16.01-1.83-9.05-9.67-15.55-18.84-15.65-4.2-.05-7.94,1.26-10.92,3.21,3.16-3.99,8.72-7.43,15.5-7.35,9.17.1,17.02,6.59,18.84,15.65,1.58,7.84-1.94,15.99-8.48,20.16Z"/>
      </g>
    </g>
  </g>
</svg>