<?xml version="1.0" encoding="UTF-8"?>
<svg id="Calque_2" data-name="Calque 2" xmlns="http://www.w3.org/2000/svg" viewBox="0 0 172.48 37.22">
  <defs>
    <style>
      .cls-1 {
        fill: #fff;
      }
    </style>
  </defs>
  <g id="Calque_1-2" data-name="Calque 1">
    <g>
      <path class="cls-1" d="m48.44,36.18c-1.51-.03-2.58-.19-3.24-.49s-1.11-.99-1.37-2.05c-.26-1.06-.4-2.79-.41-5.18l-.11-19.96c-.01-2.39.1-4.12.35-5.18.25-1.06.7-1.75,1.35-2.06.65-.31,1.72-.49,3.23-.53.17,0,.26-.06.26-.18s-.09-.18-.26-.18c-1.57,0-2.91.05-4,.13-.34.04-.8.06-1.39.06l-4.05.02c-1.71,0-3.18.69-4.4,2.05-1.22,1.36-2.24,3.03-3.05,5.02-.81,1.99-1.79,4.77-2.93,8.33-.84,2.67-1.68,5.16-2.52,7.46-.11-1.33-.57-2.67-1.38-3.99-.81-1.33-1.76-2.56-2.84-3.68-1.08-1.12-2.55-2.55-4.41-4.28-2.58-2.38-4.52-4.36-5.81-5.95-1.29-1.58-1.94-3.18-1.95-4.79l-3.34.02c-.58,0-1.04-.01-1.39-.04-1.1-.06-2.43-.09-4-.08-.17,0-.26.06-.26.18s.09.18.26.18c1.51.03,2.58.19,3.24.49s1.11.99,1.37,2.05c.26,1.06.4,2.79.41,5.18l.17,20.01c.01,2.26-.48,4.11-1.48,5.55-1,1.44-2.43,2.19-4.27,2.23-.14,0-.21.06-.2.18,0,.12.07.18.21.18,1.54,0,3.03-.05,4.46-.13.48-.04,1.04-.06,1.69-.06h.15c.68,0,1.21,0,1.59.04,1.37.06,2.86.09,4.47.08.04,0,.08,0,.12,0,.01-.15.03-.31.05-.46-.06,0-.12,0-.18,0-2.02.01-3.55-.87-4.58-2.64-1.04-1.77-1.56-3.98-1.58-6.61l-.08-22.07c0,.99.55,2.13,1.64,3.43s2.76,3.03,5.03,5.21c2.2,2.07,3.98,3.85,5.34,5.33s2.54,3.08,3.54,4.8c1,1.72,1.52,3.4,1.57,5.05.03.23.06.47.08.7.34-.59.86-1.5,1.42-2.63,1.36-2.74,2.2-5.42,3.87-10.67,1.11-3.5,2.06-6.22,2.85-8.18.79-1.95,1.77-3.6,2.92-4.94,1.15-1.34,2.55-2.03,4.2-2.08l.16,27.51c.01,2.43-.1,4.17-.35,5.21-.25,1.05-.69,1.73-1.32,2.06-.63.33-1.7.52-3.2.56-.17,0-.26.06-.26.18s.09.18.26.18c1.57-.04,2.86-.1,3.85-.18l1.54-.06,3.59-.07c.58,0,1.04.01,1.39.04,1.09.06,2.43.09,4,.08.17,0,.26-.06.26-.18,0-.12-.09-.18-.26-.18Z"/>
      <path class="cls-1" d="m120.74,2.33c2.8,1.57,4.97,3.75,6.5,6.53,1.54,2.78,2.32,5.9,2.34,9.35.02,3.63-.83,6.87-2.56,9.74s-4.14,5.12-7.22,6.76c-3.09,1.64-6.56,2.48-10.43,2.5-3.46.02-6.54-.77-9.25-2.36-2.71-1.59-4.82-3.79-6.32-6.58-1.5-2.8-2.27-5.91-2.29-9.33-.02-3.25.81-6.33,2.49-9.23,1.68-2.9,4.02-5.24,7.02-7.02C104.01.92,107.37.02,111.1,0c3.63-.02,6.84.76,9.64,2.33Zm-18.57.52c-2.06,1.33-3.68,3.13-4.87,5.42-1.18,2.28-1.77,4.79-1.75,7.53.02,3.35.73,6.62,2.13,9.82,1.4,3.19,3.37,5.79,5.9,7.79,2.53,2,5.4,3,8.61,2.98,2.6-.02,4.91-.69,6.94-2.02,2.03-1.33,3.61-3.12,4.74-5.36,1.13-2.25,1.69-4.74,1.68-7.48-.02-3.42-.73-6.73-2.14-9.92s-3.35-5.79-5.84-7.79c-2.49-2-5.33-3-8.51-2.98-2.53.01-4.83.69-6.89,2.02Z"/>
      <path class="cls-1" d="m172.48.56c0,.12-.08.18-.26.18-1.85.01-3.27.74-4.27,2.18-1,1.44-1.49,3.31-1.48,5.6l.16,27.97c0,.1-.08.15-.23.16-.15,0-.23-.05-.23-.15-.02-3.25-1.38-6.27-4.08-9.06-2.7-2.79-6.28-5.56-10.75-8.3-4.09-2.51-7.28-4.91-9.59-7.21-2.31-2.3-3.46-4.73-3.48-7.29l.13,23.2c.01,2.53.53,4.59,1.55,6.18,1.02,1.58,2.45,2.39,4.3,2.41.17,0,.26.06.26.18,0,.12-.08.18-.26.18-1.44,0-2.87-.02-4.31-.08-.48-.03-1.06-.05-1.75-.04-.68,0-1.27.02-1.74.06-1.44.08-2.87.12-4.31.13-.14,0-.21-.06-.21-.18,0-.12.07-.18.2-.18,1.85-.04,3.27-.79,4.27-2.23,1-1.44,1.49-3.29,1.48-5.55l-.11-18.42c-.02-2.91-.16-4.99-.42-6.23s-.72-2.06-1.37-2.43c-.65-.37-1.73-.57-3.24-.6-.17,0-.26-.08-.26-.23s.08-.23.26-.23c1.03,0,2.36.04,4,.13l1.39.04,3.54-.02c.02,2.84.97,5.36,2.87,7.55,1.89,2.2,4.54,4.4,7.94,6.6l1.13.76c3.16,2.07,5.46,3.61,6.9,4.63s2.64,2.01,3.58,2.98c.95.97,1.61,1.97,1.99,2.99l-.1-16.83c-.01-2.53-.53-4.59-1.55-6.17-1.02-1.58-2.45-2.39-4.3-2.41-.14,0-.21-.06-.21-.18s.07-.18.2-.18c1.44,0,2.87.02,4.31.08.48.03,1.06.05,1.75.04.65,0,1.21-.02,1.69-.06,1.44-.08,2.87-.12,4.31-.13.17,0,.26.06.26.18Z"/>
      <g>
        <path class="cls-1" d="m84.44,28.22c-3.06,4.2-9.39,8.06-17,7.2-8.35-.94-14.95-7.09-16.5-15.45-1.46-7.88,2.31-14.7,7.08-18.3-1.44,1.88-2.59,4.13-3.26,6.61-.66,2.5-.83,5.26-.3,8.15,1.55,8.35,8.15,14.5,16.5,15.45,3.33.38,6.41-.15,9.09-1.21,1.63-.65,3.1-1.5,4.38-2.46Z"/>
        <path class="cls-1" d="m78.22,22.21c1.96-2.46,2.84-5.78,2.2-9-1.03-5.09-5.44-8.74-10.59-8.8-2.36-.03-4.46.71-6.14,1.8,1.77-2.25,4.9-4.18,8.71-4.13,5.15.06,9.57,3.71,10.59,8.8.89,4.4-1.09,8.99-4.77,11.33Z"/>
      </g>
    </g>
  </g>
</svg>