<?xml version="1.0" encoding="UTF-8"?>
<svg id="Calque_2" data-name="Calque 2" xmlns="http://www.w3.org/2000/svg" viewBox="0 0 60.05 60.13">
  <defs>
    <style>
      .cls-1 {
        fill: #fff;
      }
    </style>
  </defs>
  <g id="Calque_1-2" data-name="Calque 1">
    <g>
      <path class="cls-1" d="m60.05,47.13c-5.43,7.45-16.68,14.32-30.19,12.78-14.82-1.67-26.54-12.59-29.3-27.43C-2.03,18.5,4.67,6.39,13.15,0c-2.56,3.34-4.61,7.33-5.78,11.75-1.18,4.44-1.48,9.34-.53,14.48,2.76,14.83,14.48,25.76,29.3,27.43,5.91.67,11.39-.27,16.14-2.15,2.89-1.15,5.51-2.66,7.78-4.37Z"/>
      <path class="cls-1" d="m49,36.46c3.48-4.37,5.05-10.26,3.9-15.99-1.82-9.04-9.66-15.52-18.81-15.62-4.19-.05-7.92,1.25-10.9,3.2,3.15-3.99,8.71-7.42,15.47-7.34,9.15.1,16.99,6.58,18.81,15.62,1.58,7.82-1.94,15.96-8.47,20.12Z"/>
    </g>
  </g>
</svg>