<?xml version="1.0" encoding="UTF-8"?>
<svg id="Calque_2" data-name="Calque 2" xmlns="http://www.w3.org/2000/svg" viewBox="0 0 126.44 126.61">
  <defs>
    <style>
      .cls-1 {
        fill: #1a144b;
      }
    </style>
  </defs>
  <g id="Calque_1-2" data-name="Calque 1">
    <g>
      <path class="cls-1" d="m126.44,99.24c-11.43,15.7-35.12,30.14-63.56,26.91-31.2-3.52-55.88-26.51-61.69-57.75C-4.27,38.96,9.83,13.46,27.68,0c-5.38,7.04-9.7,15.43-12.18,24.73-2.48,9.35-3.12,19.67-1.12,30.49,5.81,31.23,30.49,54.23,61.69,57.75,12.44,1.41,23.98-.56,33.98-4.53,6.08-2.42,11.59-5.6,16.39-9.19Z"/>
      <path class="cls-1" d="m103.17,76.76c7.33-9.19,10.63-21.61,8.21-33.66-3.84-19.03-20.33-32.67-39.6-32.88-8.82-.11-16.68,2.64-22.94,6.74,6.64-8.39,18.33-15.62,32.56-15.46,19.27.21,35.76,13.86,39.6,32.88,3.33,16.47-4.08,33.6-17.83,42.37Z"/>
    </g>
  </g>
</svg>